<?xml version="1.0" encoding="utf-8"?>
<svg version="1.1" id="Layer_1" xmlns="http://www.w3.org/2000/svg" xmlns:xlink="http://www.w3.org/1999/xlink" x="0px" y="0px"
	 viewBox="0 0 328.5501099 158" enable-background="new 0 0 328.5501099 158" xml:space="preserve">
<g>
	<g>
		<defs>

				<rect id="SVGID_1_" x="47.875042" y="-36.519989" transform="matrix(0.7071068 -0.7071068 0.7071068 0.7071068 -8.0292358 139.4157257)" width="232.8000183" height="231.8399963"/>
		</defs>
		<clipPath id="SVGID_2_">
			<use xlink:href="#SVGID_1_"  overflow="visible"/>
		</clipPath>
		<path fill="#d71e34" clip-path="url(#SVGID_2_)" d="M4.6399999,79.0605927c0.0000215,5.2806625,4.28157,9.5622101,9.5537319,9.5537262
			l276.4738159,0.0007019l-51.6930237,51.6930389c-3.7561646,3.7561646-3.7568512,9.85495,0,13.6118011
			c3.7561493,3.7561493,9.8556366,3.7561646,13.6118011,0l68.05336-68.0533676
			c1.803833-1.8038254,2.844696-4.2490082,2.844696-6.8058929c0-2.5583191-1.0415649-5.0028-2.844696-6.8059158
			L252.5856171,4.2006121c-3.7561493-3.7561488-9.85495-3.75685-13.6118011,0
			c-3.7561646,3.7561593-3.7533264,9.8528299,0.0028229,13.6089792l51.6937408,51.6937408L14.1944437,69.5061493
			C8.9130669,69.505455,4.6315408,73.7869797,4.6399999,79.0605927L4.6399999,79.0605927z M4.6399999,79.0605927"/>
	</g>
</g>
</svg>
