<?xml version="1.0" encoding="utf-8"?>
<!-- Generator: Adobe Illustrator 25.3.1, SVG Export Plug-In . SVG Version: 6.00 Build 0)  -->
<svg version="1.1" id="Слой_1" xmlns="http://www.w3.org/2000/svg" xmlns:xlink="http://www.w3.org/1999/xlink" x="0px" y="0px"
	 viewBox="0 0 264.9599915 250.8980103" enable-background="new 0 0 264.9599915 250.8980103" xml:space="preserve">
<path fill="#D71F34" d="M246.4609833,37.4569969c-11.3320007-11.3320007-26.3990021-17.5739899-42.4259949-17.5739899
	c-16.022995,0-31.0940094,6.2419891-42.4260101,17.5739899l-94.5819855,94.5780029
	c-14.0349884,14.0400085-14.0349884,36.875,0.0039825,50.914978c14.0350189,14.0350342,36.8750153,14.0350342,50.9100189,0
	l62.2819977-62.2819824c4.6829987-4.6870117,4.6829987-12.2850037,0-16.9720001
	c-4.6880035-4.6839905-12.2850037-4.6839905-16.9730072,0l-62.2769928,62.2809906
	c-4.6800079,4.6799927-12.2929993,4.6799927-16.9730072,0c-4.6799927-4.6799927-4.6799927-12.2929993,0-16.9689941
	l94.5820007-94.5819855c6.7970123-6.7970123,15.8399963-10.5429993,25.4530029-10.5429993
	c9.6169891,0,18.6559906,3.7459869,25.457016,10.5429993c14.0349731,14.03899,14.0349731,36.8750038,0,50.91399
	L126.4259796,208.4030151c-23.3950043,23.3939819-61.4569855,23.3939819-84.852005,0
	C30.2419739,197.0710144,24,182.0039978,24,165.9769897c0-16.0239868,6.2419739-31.0939636,17.5739746-42.4259949
	L144.6369781,20.4849968c4.687027-4.6880035,4.687027-12.2850037,0-16.9689941
	c-4.6839752-4.6880035-12.2819977-4.6880035-16.9689941,0L24.605011,106.5820007C8.7379761,122.4460144,0,143.5390015,0,165.9769897
	C0,188.4140015,8.7379761,209.5079956,24.605011,225.375c16.3749695,16.3789978,37.8829651,24.5670166,59.3949738,24.5630188
	c21.5080109,0,43.0230103-8.1880188,59.397995-24.5630188l103.0670166-103.0660095
	C269.855011,98.9140015,269.855011,60.8520012,246.4609833,37.4569969L246.4609833,37.4569969z M246.4609833,37.4569969"/>
<rect y="0.0979881" fill="none" width="264.9599915" height="250.8000183"/>
</svg>
