<?xml version="1.0" encoding="utf-8"?>
<!-- Generator: Adobe Illustrator 25.3.1, SVG Export Plug-In . SVG Version: 6.00 Build 0)  -->
<svg version="1.1" id="Capa_1" xmlns="http://www.w3.org/2000/svg" xmlns:xlink="http://www.w3.org/1999/xlink" x="0px" y="0px"
	 viewBox="-7.5855474 141 429.1733704 511.9981079" enable-background="new -7.5855474 141 429.1733704 511.9981079"
	 xml:space="preserve">
<path d="M416.1400146,306.9500122l-139.5100098-39.8599854v-69.6500244h88.5200195v16.0299683h-13.2000122
	c-4.1500244,0-7.5100098,3.3700562-7.5100098,7.5200195v31.0599976c0,4.1500244,3.3599854,7.5100098,7.5100098,7.5100098h41.4199829
	c4.1400146,0,7.5100098-3.3599854,7.5100098-7.5100098v-31.0599976c0-4.1499634-3.3699951-7.5200195-7.5100098-7.5200195
	h-13.2000122v-16.0299683h33.9000244c3.75,0,6.9199829-2.7600098,7.4400024-6.4700317
	c0.5200195-3.7099609-1.7700195-7.2399902-5.3699951-8.2699585l-144.7800293-41.3599854
	c-0.0100098,0-0.0199585,0-0.0199585-0.0100098l-0.1600342-0.0400391c-0.0499878-0.0199585-0.1099854-0.0299683-0.1699829-0.039978
	c-0.1600342-0.039978-0.3200073-0.0800171-0.4899902-0.1099854c-0.1199951-0.0300293-0.2399902-0.0400391-0.3600464-0.0599976
	c-0.1199951-0.0200195-0.2399902-0.0300293-0.3599854-0.0400391c-0.1599731-0.0199585-0.3300171-0.0299683-0.4899902-0.0299683
	c-0.0700073,0-0.1300049-0.0100098-0.1900024-0.0100098h-0.1599731c-0.0100098,0-0.0200195,0-0.0200195,0H144.8800049
	c-0.0599976,0-0.1099854,0.0100098-0.1699829,0.0100098c-0.1700439,0-0.3400269,0.0100098-0.5200195,0.0299683
	c-0.1099854,0.0100098-0.2299805,0.0200195-0.3400269,0.0400391c-0.1199951,0.0199585-0.25,0.0299683-0.3699951,0.0599976
	C143.3099976,141.1699829,143.1599731,141.210022,143,141.25c-0.0599976,0.0100098-0.1199951,0.0200195-0.1799927,0.039978
	l-0.1600342,0.0400391c-0.0099487,0.0100098-0.0099487,0.0100098-0.0199585,0.0100098L-2.1400146,182.7000122
	c-3.5999756,1.0299683-5.8900146,4.5599976-5.3699951,8.2699585c0.5200195,3.710022,3.6900024,6.4700317,7.4400024,6.4700317
	h137.4400024v69.6500244L-2.1400146,306.9500122C-5.7399902,307.9799805-8.0300293,311.5-7.5100098,315.210022
	c0.5200195,3.7099609,3.6900024,6.4699707,7.4400024,6.4699707h137.4400024v74.2700195l-30.7299805,107.5199585
	c0,0.0100098,0,0.0100098,0,0.0200195l-0.0599976,0.210022c0,0,0,0,0,0.0100098L106.5599976,503.75v0.0300293
	L77.0900269,606.9099731H62.0499878c-4.1499634,0-7.5100098,3.3600464-7.5100098,7.5100098v23.5499878H39.1799927
	c-4.1400146,0-7.5100098,3.3700562-7.5100098,7.5200195c0,4.1500244,3.3699951,7.5100098,7.5100098,7.5100098h335.6400146
	c4.1400146,0,7.5100098-3.3599854,7.5100098-7.5100098c0-4.1499634-3.3699951-7.5200195-7.5100098-7.5200195h-15.3500366
	v-23.5499878c0-4.1499634-3.3699951-7.5100098-7.5199585-7.5100098h-15.0400391L307.4500122,503.789978
	c-0.0100098-0.0199585-0.0100098-0.0299683-0.0200195-0.0499878L307.3699951,503.5
	c-0.0100098-0.0100098-0.0100098-0.0200195-0.0100098-0.0300293l-30.7299805-107.5199585v-74.2700195h88.5200195v16.039978
	h-13.2000122c-4.1500244,0-7.5100098,3.3600464-7.5100098,7.5100098v31.0599976
	c0,4.1500244,3.3599854,7.5100098,7.5100098,7.5100098h41.4199829c4.1500244,0,7.5100098-3.3599854,7.5100098-7.5100098v-31.0599976
	c0-4.1499634-3.3599854-7.5100098-7.5100098-7.5100098h-13.2000122v-16.039978h33.9100342
	c3.7399902,0,6.9199829-2.7600098,7.4400024-6.4699707C422.0300293,311.5,419.7399902,307.9799805,416.1400146,306.9500122z
	 M385.8499756,228.5v16.039978H359.460022V228.5H385.8499756z M276.6300049,158.4699707l83.8099976,23.9400024h-83.8099976
	V158.4699707z M152.3900146,156.0200195h109.2199707v26.3899536H152.3900146V156.0200195z M261.6099854,197.4400024v61.2799683
	l-91.9199829-61.2799683H261.6099854z M152.3900146,203.960022l91.9199829,61.2799683h-91.9199829V203.960022z
	 M152.3900146,280.2700195h109.2199707v26.3899536H152.3900146V280.2700195z M137.6500244,498.2000122L207,449.6500244
	l69.3499756,48.5499878H137.6500244z M268.3599854,513.2199707L207,543.9000244l-61.3599854-30.6800537H268.3599854z
	 M168.710022,404.5100098h76.5799561L207,431.3099976L168.710022,404.5100098z M261.6099854,321.6799927v61.2800293
	l-91.9199829-61.2800293H261.6099854z M152.3900146,328.210022l91.9199829,61.2799683h-91.9199829V328.210022z
	 M53.5599976,182.4099731l83.8099976-23.9400024v23.9400024H53.5599976z M53.5599976,306.6599731l83.8099976-23.9499512v23.9499512
	H53.5599976z M149.210022,409.2000122l44.6900024,31.2799683l-67.0400391,46.9299927L149.210022,409.2000122z
	 M118.5499878,516.4799805l71.6500244,35.8200073l-95.5300293,47.7700195L118.5499878,516.4799805z M344.4400024,621.9400024
	v16.039978H69.5599976v-16.039978h84.1400146c4.1400146,0,7.5100098-3.3699951,7.5100098-7.5200195
	c0-4.1399536-3.3699951-7.5100098-7.5100098-7.5100098h-39.1199951L207,560.7000122l92.4199829,46.2099609H187.1900024
	c-4.1500244,0-7.5200195,3.3700562-7.5200195,7.5100098c0,4.1500244,3.3699951,7.5200195,7.5200195,7.5200195H344.4400024z
	 M319.3300171,600.0700073l-95.5300293-47.7700195l71.6500244-35.8200073L319.3300171,600.0700073z M287.1400146,487.4099731
	l-67.0400391-46.9299927l44.6900024-31.2799683L287.1400146,487.4099731z M276.6300049,306.6599731V282.710022
	l83.8099976,23.9499512H276.6300049z M385.8499756,352.7399902v16.0400391H359.460022v-16.0400391H385.8499756z"/>
<path fill="#D71E34" d="M62.0499878,213.4699707H48.8499756v-16.0299683H33.8300171v16.0299683H20.6300049
	c-4.1400146,0-7.5100098,3.3700562-7.5100098,7.5200195v31.0599976c0,4.1500244,3.3699951,7.5100098,7.5100098,7.5100098h41.4199829
	c4.1500244,0,7.5100098-3.3599854,7.5100098-7.5100098v-31.0599976
	C69.5599976,216.8400269,66.2000122,213.4699707,62.0499878,213.4699707z M54.539978,244.539978H28.1500244V228.5H54.539978
	V244.539978z"/>
<path fill="#D71E34" d="M62.0499878,337.7199707H48.8499756v-16.039978H33.8300171v16.039978H20.6300049
	c-4.1400146,0-7.5100098,3.3600464-7.5100098,7.5100098v31.0599976c0,4.1500244,3.3699951,7.5100098,7.5100098,7.5100098h41.4199829
	c4.1500244,0,7.5100098-3.3599854,7.5100098-7.5100098v-31.0599976
	C69.5599976,341.0800171,66.2000122,337.7199707,62.0499878,337.7199707z M54.539978,368.7800293H28.1500244v-16.0400391H54.539978
	V368.7800293z"/>
</svg>
