<?xml version="1.0" encoding="utf-8"?>
<!-- Generator: Adobe Illustrator 25.3.1, SVG Export Plug-In . SVG Version: 6.00 Build 0)  -->
<svg version="1.1" id="Слой_1" xmlns="http://www.w3.org/2000/svg" xmlns:xlink="http://www.w3.org/1999/xlink" x="0px" y="0px"
	 viewBox="0 0 448 496" enable-background="new 0 0 448 496" xml:space="preserve">
<g>
	<path d="M433.2729797,270.440979l-3.6089783-7.7999878c1.5350037-10.0470123,2.335968-20.2820282,2.335968-30.6410217V224h-208v208
		h8.0000153c27.5270233,0,54.9300079-5.7620239,80.0000153-16.6800232V416c0,12.0469971,3.9840088,23.9769897,11.1990051,33.5939941
		L336,466.6640015V496h80v-30.8010254l24.9689941-81.1439819C445.6329956,368.8949585,448,353.1679688,448,337.2890015
		C448,314.3589783,442.9019775,291.2379761,433.2729797,270.440979L433.2729797,270.440979z M240,415.8319702V240h175.8320007
		C414.1679993,279.1289673,400.2069702,316,376,346.3670044V344c0-17.6480103-14.3519897-32-32-32s-32,14.3519897-32,32v53.6719971
		C289.375,408.6409912,265.2229614,414.7769775,240,415.8319702L240,415.8319702z M425.6719971,379.3589783l-25.3200378,82.2890015
		L400,480h-48v-18.664032l-16-21.3439941c-5.1600342-6.8630066-8-15.3899841-8-23.9919739v-72c0-8.8240356,7.1759644-16,16-16
		c8.8240051,0,16,7.1759644,16,16v64h16v-37.2890015c22.440979-23.2769775,38.6329956-51.0390015,47.6480103-81.2540283
		c5.4219971,15.3359985,8.3519592,31.6130371,8.3519592,47.8320312
		C431.9999695,351.565979,429.8710022,365.7189636,425.6719971,379.3589783L425.6719971,379.3589783z M425.6719971,379.3589783"/>
	<path d="M400,200C400,89.7189941,310.2810059,0,200,0S0,89.7189941,0,200s89.7189941,199.9999695,200,199.9999695h7.9999847v-192
		H400V200z M367.8869934,124.8009644L300.6879883,192h-49.3760071l98.5899963-98.5860291
		C356.8869629,103.2069702,362.9020081,113.7189636,367.8869934,124.8009644L367.8869934,124.8009644z M339.9689941,80.7269592
		L228.6880035,192h-20.6880188v-28.6880188L314.9020081,56.4059753
		C324.0079651,63.7029724,332.3909912,71.8549805,339.9689941,80.7269592L339.9689941,80.7269592z M207.9999847,91.3120117
		L269.625,29.6879578c11.3519897,4.6560059,22.1170044,10.44104,32.2070007,17.1670227l-93.832016,93.8329773V91.3120117z
		 M207.9999847,68.6879578V16.1989746c15.542984,0.6720276,30.602005,3.2580261,44.9219818,7.5709839L207.9999847,68.6879578z
		 M191.9999847,383.8319702C94.2379913,379.625,15.9999695,298.7769775,15.9999695,200
		S94.2379913,20.4059753,191.9999847,16.1989746V383.8319702z M323.3119812,192l50.9610291-50.9690247
		c5.4609985,16.1139832,8.7890015,33.2149963,9.5509644,50.9690247H323.3119812z M323.3119812,192"/>
	<path fill="#D71F34" d="M103.9999847,159.9999695C112.8239899,159.9999695,120,167.1759644,120,176h15.9999847
		c0-14.8710022-10.2379913-27.289032-24-30.8630371V128H96v17.1369629C82.2379913,148.710968,71.9999847,161.1289978,71.9999847,176
		c0,17.6479797,14.3519897,31.9999695,32,31.9999695C112.8239899,207.9999695,120,215.1759644,120,224
		c0,8.8239746-7.1760101,16-16.0000153,16c-8.8239899,0-16-7.1760254-16-16h-16
		c0,14.8710022,10.2380066,27.2889862,24.0000153,30.8629913V272h15.9999847v-17.1370087
		c13.7620087-3.5740051,24-15.9919891,24-30.8629913c0-17.6480408-14.352005-32-32-32c-8.8239899,0-16-7.1760254-16-16
		C87.9999847,167.1759644,95.1759949,159.9999695,103.9999847,159.9999695L103.9999847,159.9999695z M103.9999847,159.9999695"/>
</g>
</svg>
