<?xml version="1.0" encoding="utf-8"?>
<!-- Generator: Adobe Illustrator 25.3.1, SVG Export Plug-In . SVG Version: 6.00 Build 0)  -->
<svg version="1.1" id="Capa_1" xmlns="http://www.w3.org/2000/svg" xmlns:xlink="http://www.w3.org/1999/xlink" x="0px" y="0px"
	 viewBox="-5.8550186 141 425.7120056 512" enable-background="new -5.8550186 141 425.7120056 512" xml:space="preserve">
<g>
	<path d="M293.0320129,327.882019c-4.2749939,3.4799805-4.9249878,9.7689819-1.45401,14.0529785
		c0.118988,0.1480103,0.2650146,0.3170166,0.3930054,0.4580078c1.973999,2.17099,4.6830139,3.2729797,7.4020081,3.2729797
		c2.3999939,0,4.8080139-0.8589783,6.723999-2.6009827c3.9949951-3.632019,4.3729858-9.7579956,0.9159851-13.848999
		C303.5090027,325.0280151,297.2829895,324.4230042,293.0320129,327.882019z"/>
	<path d="M228.039978,527.4699707c3.9500122,0.2400513,7.8699951,0.3700562,11.7700195,0.3700562
		c44.710022,0,85.4099731-16.2700195,115.5900269-46.4500122c7.9400024-7.9500122,15.7199707-23.7300415,7.6499634-53.7900391
		c-5.5499878-20.6799927-17.8099976-45.1999512-35.4500122-70.8999634
		c-3.1300049-4.5499878-9.3499756-5.710022-13.8999634-2.5800171c-4.5599976,3.1199951-5.7200317,9.3499756-2.5900269,13.9000244
		c16.3699951,23.8599854,27.6500244,46.25,32.6199951,64.7600098c4.3600464,16.2699585,3.4899902,28.5099487-2.4699707,34.4599609
		c-9,9.0100098-31.4100342,6.3200073-59.9400024-7.1699829c-21.3400269-10.0900269-44.4799805-25.3099976-67.5100098-44.2200317
		c13.5700073-16.5899658,14.5800171-40.0799561,3.0499878-57.6999512l52.0400391-52.0500488
		c4.5699463,2.3200073,9.5899658,3.4900513,14.5999756,3.4900513c8.2600098,0,16.5200195-3.1400146,22.8099976-9.4300537
		c6.289978-6.289978,9.4299927-14.5499878,9.4299927-22.7999878c0-8.2600098-3.1400146-16.5199585-9.4299927-22.8099976
		c-12.5700073-12.5700073-33.039978-12.5700073-45.6099854,0c-10.1000366,10.1099854-12.0800171,25.2999878-5.9400024,37.4100342
		L202.7199707,344c-7.8899536-5.1900024-17.1199951-7.9699707-26.7799683-7.9699707
		c-11.3800049,0-22.1699829,3.8599854-30.8599854,10.9599609c-18.6600342-22.8099976-33.6799927-45.7000122-43.6700439-66.8300171
		c-0.6699829-1.4299927-1.3199463-2.8399658-1.9400024-4.2299805L76.5100098,272.5
		c1.8999634,5.210022,4.1699829,10.6199951,6.8200073,16.210022c16.3099976,34.5,44.9500122,73.1499634,80.6199951,108.8200073
		c35.6699829,35.6699829,74.3099976,64.2999878,108.8200073,80.6199951
		c13.3699951,6.3199463,25.6900024,10.5299683,36.7399902,12.6399536
		c-60.2399902,32.2400513-142.6600342,18.2000122-199.8400269-38.9899902
		c-33.1599731-33.1599731-52.9400024-75.6400146-55.7000122-119.6199951
		c-1.3799438-21.8499756,1.5500488-42.75,8.4400024-61.7799683l-20.1499634-3.0100098
		c-6.8599854,20.5299683-9.710022,42.8399658-8.25,66.0499878c3.0700073,48.8400269,24.9199829,95.9000244,61.5200195,132.5100098
		C102.0200195,472.4400024,108.8499756,478.460022,115.9500122,484c-0.0300293,0.0700073-0.0599976,0.1400146-0.0800171,0.2199707
		l-27.8399658,88.710022H64.2199707c-38.6399536,0-70.0799561,31.4299927-70.0799561,70.0700073c0,5.5200195,4.4799805,10,10,10
		H277.960022c5.5199585,0,10-4.4799805,10-10c0-38.6400146-31.4400024-70.0800171-70.0700073-70.0800171h-32.7900391v-53.0999756
		C199.0999756,523.960022,213.4899902,526.5499878,228.039978,527.4699707z M274.8400269,268.6900024
		c2.3899536-2.3900146,5.5299683-3.5800171,8.6599731-3.5800171c3.1400146,0,6.2800293,1.1900024,8.6699829,3.5800171
		c4.7700195,4.7799683,4.7700195,12.5499878,0,17.3200073c-4.7799683,4.7799683-12.5499878,4.7799683-17.3299561,0
		C270.0700073,281.2399902,270.0700073,273.4699707,274.8400269,268.6900024z M198.6199951,402.8099976
		c-6.9099731-6.1799927-13.7700195-12.6699829-20.5299683-19.4299927
		c-6.9700317-6.9700317-13.6500244-14.0499878-20.0100098-21.1799927c5.0700073-4,11.2999878-6.1799927,17.8599854-6.1799927
		c7.710022,0,14.960022,3,20.4199829,8.4599609c0,0,0.0100098,0,0.0100098,0.0100098c0,0,0.0100098,0,0.0100098,0.0100098
		C206.8300171,374.9500122,207.5700073,391.4799805,198.6199951,402.8099976z M133.0999756,496.0999756
		c10.25,6.5100098,20.960022,12.0700073,32,16.6400146v60.1799927h-56.1099854L133.0999756,496.0999756z M217.8800049,592.9199829
		c24.1900024,0,44.4299927,17.2399902,49.0700073,40.0800171H15.1500244
		c4.6399536-22.8400269,24.8800049-40.0800171,49.0699463-40.0800171H217.8800049z"/>
	<path d="M283.6560059,194.3849945c-5.5220032,0-10,4.477005-10,10s4.4779968,10,10,10
		c34.6369934,0,62.8160095,28.1790009,62.8160095,62.8159943c0,5.5230103,4.4779968,10,10,10s10-4.4769897,10-10
		C366.4729919,231.5360107,329.3210144,194.3849945,283.6560059,194.3849945z"/>
	<path d="M283.6560059,141c-5.5220032,0-10,4.477005-10,10s4.4779968,10,10,10
		c64.072998,0,116.2009888,52.1269989,116.2009888,116.2009888c0,5.5230103,4.4779968,10,10,10s10-4.4769897,10-10
		C419.8569946,202.1000061,358.7579956,141,283.6560059,141z"/>
</g>
<path fill="#D71E34" d="M230.0900269,265.4799805c-3.4300537,4.3200073-9.7200317,5.0400391-14.0500488,1.6100464
	C154.960022,218.6099854,107.6900024,206.75,94.2299805,220.2199707c-8.5499878,8.5500488-6.5599976,29.2000122,5.2399902,55.710022
	L76.5100098,272.5c-2.6699829-7.2700195-4.6099854-14.1599731-5.8400269-20.5999756
	c-3.1900024,5.9299927-5.9500122,12.1099854-8.2600098,18.5l-20.1499634-3.0100098
	c7.7000122-23.0900269,20.4599609-43.9400024,37.8300171-61.3099976c0-0.0100098,0-0.0100098,0.0099487-0.0100098
	c9.0599976-9.0599976,27.4800415-17.2000122,63.7300415-4.5599976
	c25.3899536,8.8499756,54.6599731,26.1099854,84.6499634,49.9199829
	C232.7999878,254.8599854,233.5200195,261.1500244,230.0900269,265.4799805z"/>
</svg>
