<?xml version="1.0" encoding="utf-8"?>
<!-- Generator: Adobe Illustrator 25.3.1, SVG Export Plug-In . SVG Version: 6.00 Build 0)  -->
<svg version="1.1" id="Слой_1" xmlns="http://www.w3.org/2000/svg" xmlns:xlink="http://www.w3.org/1999/xlink" x="0px" y="0px"
	 viewBox="0 0 340 340" enable-background="new 0 0 340 340" xml:space="preserve">
<path d="M301.9399414,73.8599854c6.9799805-27.0100098,3.9200439-48.0199585-8.9299316-60.8699951
	c-9.4599609-9.4500122-23.1899414-13.6099854-40.8300781-12.3499756C236.5800781,1.75,218.6199951,7.0800171,198.789978,16.460022
	C191.5700073,15.4899902,184.289978,15,177,15C87.5300293,15,15,87.5300293,15,177
	c0,7.289978,0.4899902,14.5700073,1.460022,21.789978C7.0800171,218.6199951,1.75,236.5800171,0.6400146,252.1799927
	c-1.2600098,17.6300049,2.8900146,31.3699951,12.3499756,40.8300171
	c8.3599854,8.3599854,20.1900024,12.5800171,34.8800049,12.5800171c8.7800293-0.1300049,17.5100098-1.3500366,25.9899902-3.6600342
	c64.4000244,53.1600342,158.6500244,48.6699829,217.6900635-10.3800049
	C350.5999756,232.5100098,355.0999756,138.2600098,301.9399414,73.8599854z M253.0400391,12.6099854
	c14-1,24.5899658,1.9800415,31.4799805,8.8699951C290.6699219,27.6300049,296.4799805,39.7000122,292.0900879,63
	c-0.1801758-0.1799927-0.3601074-0.3699951-0.5400391-0.5499878c-19.9100342-20-44.7199707-34.4199829-71.9500732-41.8099976
	C231.8499756,16.0499878,243.2099609,13.3099976,253.0400391,12.6099854z M21.4799805,284.5200195
	c-6.8899536-6.8800049-9.8800049-17.4800415-8.8699951-31.4800415c0.7000122-9.8299561,3.4400024-21.1799927,8.0300293-33.4400024
	c7.3900146,27.2400513,21.8099976,52.0400391,41.8099976,71.9500122c0.1799927,0.1799927,0.3699951,0.3599854,0.5499878,0.5400391
	C39.7000122,296.4799805,27.6300049,290.6699829,21.4799805,284.5200195z M87.9000244,297.5900269
	C93.75,295.5,99.75,293.0200195,105.8900146,290.1599731l7.5100098,5.6400146C114.4400024,296.5800171,115.7000122,297,117,297
	h6.7999878l3.0499878,21.3699951C112.9099731,313.4000244,99.789978,306.4000244,87.9000244,297.5900269z M165.1799927,313.539978
	L162,326.25c-7.5800171-0.75-15.0999756-2.0900269-22.4799805-3.9899902l-4.5800171-32.1099854
	C134.5200195,287.2000122,131.9799805,285,129,285h-10l-1.0999756-0.8200073
	c17.9699707-9.5299683,36.6900024-21.9400024,55.1699829-36.6300049l5.6900024,5.6900024
	c1.4899902,1.4899902,3.6499634,2.0900269,5.7000122,1.5800171l18.6099854-4.6500244L206.6799927,261l-4.4199829,13.2600098
	l-15.1600342,5.0499878C184.6599731,280.1199951,183,282.4199829,183,285v14.789978l-15.3300171,10.2200317
	C166.4299927,310.8400269,165.539978,312.0999756,165.1799927,313.539978z M177,327
	c-0.9400024,0-1.8800049-0.0200195-2.8099976-0.039978l2.0700073-8.25l16.0700073-10.7200317
	C194,306.8800049,195,305.0100098,195,303v-13.6799927l13.9000244-4.6300049c1.789978-0.5999756,3.1900024-2,3.789978-3.789978l6-18
	c0.4099731-1.2400513,0.4099731-2.5599976,0-3.8000488l-6-18c-0.9899902-2.9699707-4.0999756-4.6799927-7.1400146-3.9199829
	l-20.7099609,5.1799927l-2.4300537-2.4400024c5.6000366-4.7099609,11.1500244-9.6099854,16.6700439-14.7000122l-8.1600342-8.8099976
	c-5.6199951,5.2200317-11.2999878,10.210022-17.0299683,15l-10.6500244-10.6499634C162.1199951,219.6300049,160.5900269,219,159,219
	h-10.1799927l-12.9799805-8.6500244l-4.5599976,11.3900146L143.6699829,230c0.9899902,0.6500244,2.1500244,1,3.3300171,1h9.5200195
	l8.0199585,8.0200195C145.210022,254.289978,125.7199707,266.9299927,107.25,276.1900024l-9.8200073-7.3699951L88.210022,255
	l3.1199951-4.6799927l-10.3200073-6.1500244l-5,7.5c-1.3500366,2.0200195-1.3500366,4.6400146,0,6.6600342l12,18
	c0.3800049,0.5599976,0.8399658,1.0599976,1.3900146,1.4699707l5.5199585,4.1400146
	c-5.8800049,2.5499878-11.8999634,4.7700195-18.0199585,6.6699829
	c-12.710022-11.3999634-23.3800049-24.8699951-31.5900269-39.8399658l9.289978-6.9700317
	C56.1099854,240.6699829,57,238.8900146,57,237v-17.4699707l-11.4400024-15.0500488C45.1900024,205.2600098,45,206.1300049,45,207
	v27l-5.0999756,3.8200073C31.3699951,218.6799927,26.9799805,197.960022,27,177c0-74.0900269,54-135.7999878,124.710022-147.8599854
	l-4.5700073,20.5599976c-0.6600342,3,1.039978,6.0199585,3.9599609,6.9899902l33.1600342,11.0499878l5.0499878,15.1500244
	c0.4199829,1.2699585,1.25,2.3599854,2.3599854,3.0999756l14.4800415,9.6500244l-4.4400024,17.7600098l-36.8300171,26.3099976
	l-14.4100342-9.6100464l-23.8699951-17.8999634c-2.3899536-1.7900391-5.7299805-1.5599976-7.8399658,0.5599976l-18,18
	C99.6300049,131.8800049,99,133.4099731,99,135v20.7800293l12,4.1499634v-22.4500122l12.5599976-12.5599976l19.8400269,14.8800049
	c0.0899658,0.0700073,0.1799927,0.1300049,0.2699585,0.1900024l18,12c2.0800171,1.3900146,4.7900391,1.3400269,6.8200073-0.1099854
	l42-30c1.1600342-0.8300171,1.9899902-2.039978,2.3300171-3.4299927l6-24C219.4400024,92,218.4400024,89.4099731,216.3300171,88
	L200.039978,77.1500244l-5.3499756-16.0500488c-0.5999756-1.7999878-2-3.1999512-3.789978-3.7999878l-30.8699951-10.2799683
	l4.3299561-19.4800415C168.5300293,27.1900024,172.7399902,27,177,27
	c42.6099854-0.0200195,83.2099609,18.1400146,111.6099854,49.9000244c-4.6099854,15.0899658-12.25,31.5599976-22.7199707,49.0099487
	l10.289917,6.1800537c9.2800293-15.4700317,16.4500732-30.2800293,21.4101562-44.1800537
	C312.0400391,107.3699951,321.5200195,130.0499878,325.2299805,154l-19.3699951,11.8900146
	c-1.3399658,0.8200073-2.2999268,2.1300049-2.6800537,3.6599731l-11.1999512,44.7999878l-32.8800049,10.960022
	C256.6500244,226.1300049,255,228.4199829,255,231v33.5200195l-10.2399902,10.2399902
	c-1.9199219,1.9099731-2.3100586,4.8699951-0.9699707,7.2199707l12.6699219,22.1799927
	C232.6599731,319.1099854,205.1099854,327.0300293,177,327z M266.4099121,297.3699951L256.4799805,280l8.7600098-8.7600098
	C266.3699951,270.1199951,267,268.5900269,267,267v-31.6799927l31.9000244-10.6300049
	c1.9400635-0.6500244,3.4200439-2.2399902,3.9200439-4.2399902l11.4099121-45.6199951l12.4399414-7.6300049
	C326.8800049,170.4400024,327,173.710022,327,177C327,224.4500122,304.5200195,269.0999756,266.4099121,297.3699951z"/>
<rect fill="none" width="340" height="340"/>
<path d="M285,201v-48c0-2.6799927-1.7730103-5.0310059-4.3519897-5.7700043l-42.0000305-12
	c-1.0779724-0.3079987-2.2180176-0.3079987-3.29599,0l-42,12c-2.57901,0.7389984-4.352005,3.0900116-4.352005,5.7700043v48
	c0,2.6799927,1.772995,5.0310059,4.352005,5.7700043l42,12c1.0779724,0.3079987,2.2180176,0.3079987,3.29599,0l42.0000305-12
	C283.2269897,206.0310059,285,203.6799927,285,201L285,201z M237,147.2380066L257.1600037,153L237,158.7619934L216.8399811,153
	L237,147.2380066z M200.9999847,160.9530029L231,169.5269928v35.5200043l-30.0000153-8.5739899V160.9530029z M243,205.0469971
	v-35.5200043l30-8.5739899v35.5200043L243,205.0469971z M243,205.0469971"/>
<rect x="171" y="99" width="12" height="12"/>
<rect x="92.9999847" y="75" width="12.0000153" height="12"/>
<rect x="62.9999847" y="147" fill="#D71F34" width="12" height="12"/>
<rect x="117" y="237" width="12" height="12"/>
<rect x="153" y="279" width="12" height="12"/>
<rect x="279" y="243" width="12" height="12"/>
<path fill="#D71F34" d="M111,159.9299927V165c0,1.5900269-0.6300049,3.1199951-1.7600098,4.2399902l-12,12
	c-0.5700073,0.5800171-1.2600098,1.0300293-2.0100098,1.3300171L66.960022,193.8800049L57,208.8200073v10.710022
	l-11.4400024-15.0500488c0.1199951-0.2799683,0.2700195-0.5499878,0.4400024-0.7999878l12-18
	c0.6799927-1.0200195,1.6400146-1.7999878,2.7700195-2.25l28.8499756-11.539978L99,162.5200195v-6.7399902L111,159.9299927z"/>
<path fill="#D71F34" d="M135.8400269,210.3499756l-4.5599976,11.3900146l-2.710022-1.8099976l-20.0200195,10l-10.8900146,10.8900146
	l-6.3299561,9.5l-10.3200073-6.1500244l7-10.5c0.2199707-0.3299561,0.4699707-0.6300049,0.75-0.9099731l12-12
	c0.4500122-0.460022,0.9799805-0.8400269,1.5599976-1.1300049l24-12c1.9199829-0.960022,4.210022-0.8200073,6.0100098,0.3800049
	L135.8400269,210.3499756z"/>
</svg>
