<?xml version="1.0" encoding="utf-8"?>
<!-- Generator: Adobe Illustrator 25.3.1, SVG Export Plug-In . SVG Version: 6.00 Build 0)  -->
<svg version="1.1" id="Слой_1" xmlns="http://www.w3.org/2000/svg" xmlns:xlink="http://www.w3.org/1999/xlink" x="0px" y="0px"
	 viewBox="0 0 372 372.0000305" enable-background="new 0 0 372 372.0000305" xml:space="preserve">
<g>
	<defs>
		<rect id="SVGID_1_" width="372" height="372.0000305"/>
	</defs>
	<clipPath id="SVGID_2_">
		<use xlink:href="#SVGID_1_"  overflow="visible"/>
	</clipPath>
	<path clip-path="url(#SVGID_2_)" d="M233.9999847,84C247.2339783,84,258,73.2340088,258,60
		c0-0.2030029-0.0079956-0.4060059-0.0120239-0.625c4.3439941-0.8980103,8.4499817-2.7770081,12.0120239-5.4880066
		c6.1989746,4.7109985,13.9219971,7.0079956,21.8980103,5.8240051C298.6989746,74.4410095,313.3789673,84,330,84
		c23.1520081,0,42-18.8479919,42-42S353.1520081,0,330,0c-8.2030029,0-16.1950073,2.4179993-23.0119934,6.894989
		C296.6759644-1.6679993,280.7109985-2.0270081,270,6.1130066C264.8280029,2.1799927,258.5230103,0,252,0
		c-16.5429993,0-30.0000153,13.4570007-30.0000153,30c0,2.8980103,0.4450226,5.8009949,1.3090057,8.605011
		C215.375,42.5700073,209.9999847,50.7850037,209.9999847,60C209.9999847,73.2340088,220.7659912,84,233.9999847,84L233.9999847,84z
		 M232.3119812,48.1990051c1.9889984-0.2850037,3.70401-1.5430298,4.5750122-3.3590088
		c0.8709869-1.8200073,0.7649841-3.9450073-0.269989-5.6640015C234.875,36.2770081,233.9999847,33.1910095,233.9999847,30
		c0-9.9259949,8.0739899-18,18.0000153-18c5.1839905,0,9.9729614,2.2149963,13.4799805,6.2269897
		c2.2900085,2.605011,6.75,2.605011,9.0400085,0C278.0269775,14.2149963,282.8160095,12,288,12
		c5.30896,0,10.3439941,2.4179993,13.8160095,6.6289978c1.0279846,1.25,2.5159607,2.0270081,4.1289978,2.1600037
		c1.6679993,0.1679993,3.2109985-0.3829956,4.43396-1.4370117C315.8479614,14.6170044,322.8120117,12,330,12
		c16.5429688,0,30,13.4570007,30,30s-13.4570312,30-30,30c-13.2340088,0-24.7579956-8.4880066-28.6600342-21.125
		c-0.4769592-1.5429993-1.5629883-2.8320007-2.9959717-3.5700073c-0.8600159-0.4339905-1.7929993-0.6570129-2.7350159-0.6570129
		c-0.6440125,0-1.2929688,0.1100159-1.9140015,0.3210144C291.625,47.6560059,289.7659912,48,288,48
		c-5.1839905,0-9.9730225-2.2149963-13.480011-6.2269897c-2.2900085-2.605011-6.75-2.605011-9.0400085,0
		C261.9729614,45.7850037,257.1839905,48,252.2030029,48c-0.1600342-0.0229797-0.8160095-0.0979919-0.9760437-0.1089783
		c-1.9889526-0.0710144-3.9539795,0.7729797-5.1679535,2.4019775c-1.2110138,1.6170044-1.5240326,3.7380066-0.8400421,5.6329956
		C245.7460022,57.3710022,246,58.6990051,246,60c0,6.6170044-5.3830109,12-12.0000153,12c-6.6169891,0-12-5.3829956-12-12
		C221.9999847,54.1090088,226.4299774,49.0310059,232.3119812,48.1990051L232.3119812,48.1990051z M232.3119812,48.1990051"/>
</g>
<path d="M366,336h-6V186c0-3.3200073-2.6799316-6-6-6h-83.9399414l2.6699219,12H348v144H102V156h100.4699707l2.6200562-12H138v-24
	h-12v24h-12v-24h-12v24h-6c-3.3200073,0-6,2.6799927-6,6v78H42v-24H30v24h-6c-3.3200073,0-6,2.6799927-6,6v102H6
	c-3.3200073,0-6,2.6799927-6,6v24c0,3.3200073,2.6799927,6,6,6h360c3.3200684,0,6-2.6799927,6-6v-24
	C372,338.6799927,369.3200684,336,366,336z M30,240h60v96H30V240z M360,360H12v-12h348V360z"/>
<rect x="114" y="168" width="12" height="12.0000153"/>
<rect x="138" y="168" width="12" height="12.0000153"/>
<rect x="162" y="168" width="12" height="12.0000153"/>
<rect x="114" y="192" width="12" height="12"/>
<rect x="138" y="192" width="12" height="12"/>
<rect x="162" y="192" width="12" height="12"/>
<rect x="114" y="216" width="12" height="12.0000153"/>
<rect x="138" y="216" width="12" height="12.0000153"/>
<rect x="162" y="216" width="12" height="12.0000153"/>
<rect x="114" y="240" width="12" height="12"/>
<rect x="138" y="240" width="12" height="12"/>
<rect x="162" y="240" width="12" height="12"/>
<rect x="114" y="264" width="12" height="12"/>
<rect x="138" y="264" width="12" height="12"/>
<rect x="114" y="288" width="12" height="12"/>
<rect x="138" y="288" width="12" height="12"/>
<rect x="114" y="312" width="12" height="12"/>
<rect x="138" y="312" width="12" height="12"/>
<rect x="162" y="264" width="12" height="12"/>
<rect x="186" y="168" width="12" height="12.0000153"/>
<rect x="42" y="252" width="11.9999847" height="12"/>
<rect x="65.9999847" y="252" width="12" height="12"/>
<rect x="42" y="276" width="11.9999847" height="12"/>
<rect x="65.9999847" y="276" width="12" height="12"/>
<rect x="42" y="300" width="11.9999847" height="12"/>
<rect x="65.9999847" y="300" width="12" height="12"/>
<rect x="324" y="204" width="12" height="12"/>
<rect x="300" y="204" width="12" height="12"/>
<rect x="324" y="228.0000153" width="12" height="11.9999847"/>
<rect x="300" y="228.0000153" width="12" height="11.9999847"/>
<rect x="324" y="252" width="12" height="12"/>
<rect x="300" y="252" width="12" height="12"/>
<rect x="324" y="276" width="12" height="12"/>
<rect x="300" y="276" width="12" height="12"/>
<rect x="324" y="300" width="12" height="12"/>
<rect x="300" y="300" width="12" height="12"/>
<path fill="#D71F34" d="M272.4000244,192h0.3299561l-2.6699219-12h-0.3601074l-17.8399658-79.3200073
	C251.2399902,97.9500122,248.8099976,96,246,96h-24c-2.8099976,0-5.2399902,1.9500122-5.8599854,4.6799927L206.4000244,144
	h-1.3099976l-2.6200562,12h1.2300415l-40.5,180H175.5l8.0999756-36h100.8000488L292.5,336h12.3000488L272.4000244,192z
	 M226.7999878,108h14.4000244l21.6000366,96h-57.6000366L226.7999878,108z M202.5,216h63l2.6999512,12h-68.3999634L202.5,216z
	 M197.0999756,240h73.8000488l5.4000244,24h-84.6000366L197.0999756,240z M186.2999878,288L189,276h90l2.6999512,12H186.2999878z"/>
</svg>
