<?xml version="1.0" encoding="utf-8"?>
<!-- Generator: Adobe Illustrator 25.3.1, SVG Export Plug-In . SVG Version: 6.00 Build 0)  -->
<svg version="1.1" id="Слой_1" xmlns="http://www.w3.org/2000/svg" xmlns:xlink="http://www.w3.org/1999/xlink" x="0px" y="0px"
	 viewBox="0 0 512 500.000061" enable-background="new 0 0 512 500.000061" xml:space="preserve">
<path d="M504.75,326.8700562l-56.0300293-16.0100098l62.9899902-256.0499878c0-0.0200195,0.0100098-0.039978,0.0100098-0.0599976
	c0.0500488-0.1799927,0.0800781-0.3800049,0.1101074-0.5700073c0.0299072-0.1400146,0.0599365-0.2799683,0.079834-0.4199829
	c0.0100098-0.1099854,0.0200195-0.2200317,0.0300293-0.3300171c0.130127-1.2399902,0.0300293-2.460022-0.2800293-3.6099854
	L500.3100586,7.4200406c-1.4300537-5.3299561-6.9001465-8.5-12.2399902-7.0799561L301.0100098,50.2500572
	c-2.5599976-2.1599731-5.3200073-4.1300049-8.2900391-5.8400269c-13.0499878-7.539978-28.25-9.539978-42.7999878-5.6499634
	c-18.5299683,4.9599609-32.4299927,18.6499634-38.4799805,35.4599648l-36.8400269,9.8200073l4.7200317,19.4500122
	l28.8399658-7.6900024c0.3600464,8.0100098,2.4500122,15.960022,6.1100464,23.1099854l-29.3000488,7.8099976l4.7200317,19.4400024
	l38.0700073-10.1499634c0.6199951,0.5299683,1.25,1.039978,1.8900146,1.5499878l-14.3800049,73.1699829
	c0,0.0300293-0.0100098,0.0599976-0.0200195,0.1000366L185,364.7600708
	c-0.0100098,0.039978-0.0200195,0.0700073-0.0200195,0.1099854l-14.2099609,72.289978h-34.8500366c-5.5299683,0-10,4.4800415-10,10
	v32.2200317H10.039978c-5.5199585,0-10,4.4799805-10,10c0,5.5299683,4.4800415,10,10,10H502c5.5200195,0,10-4.4700317,10-10
	V336.4800415C512,332.0200806,509.0400391,328.0900879,504.75,326.8700562z M228.9799805,85.3500366
	c2.8699951-12.8099976,12.5800171-23.6499672,26.1100464-27.2699623c3.1299438-0.8400269,6.3099976-1.25,9.4699707-1.25
	c6.3099976,0,12.539978,1.6499634,18.1500244,4.8999634c3.0700073,1.7700195,5.8099976,3.9400063,8.1900024,6.4400063
	c0.0199585,0.0200195,0.039978,0.0400391,0.0599976,0.0599976c2.5799561,2.7300415,4.7299805,5.8600464,6.3599854,9.25
	c8.0200195,16.0400391,2.0499878,36.3300171-12.7299805,46.1199951c-7.8900146,5.2400513-17.7800293,7.210022-27.0700073,5.3699951
	c-8.6100464-1.6999512-16.5500488-6.5699463-21.8900146-13.5499878
	C229.1400146,106.9300537,226.6199951,95.7900391,228.9799805,85.3500366z M285.9400024,176.250061l5.210022,26.4899902h-37.8800049
	L285.9400024,176.250061z M240.2000122,187.5900879l7.9299927-40.3400269c7.6300049,2.3300171,15.6500244,3,23.6300049,1.9400024
	c0.039978-0.0100098,0.0800171-0.0100098,0.1199951-0.0200195c2.5-0.3299561,4.9799805-0.8299561,7.4099731-1.4899902
	c0.3300171-0.0899658,0.6600342-0.1799927,0.9800415-0.2799683l1.3099976,6.6399536L240.2000122,187.5900879z
	 M296.6099854,230.5400391l8.5900269,43.6700439l-64.9100342-0.1900024L296.6099854,230.5400391z M233.2999878,222.7400513
	h40.6799927l-47.9599609,37.0300293L233.2999878,222.7400513z M219.2999878,293.960083l65.4100342,0.1900024l-75.4200439,50.7199707
	L219.2999878,293.960083z M310.4500122,300.9400635l10.9500122,55.7199707h-93.8000488L310.4500122,300.9400635z
	 M203.0499878,376.6600342h89.6600342l-99.8900146,52.0300293L203.0499878,376.6600342z M326.3200684,381.710083
	l10.8999023,55.4499512H219.8499756L326.3200684,381.710083z M383.2099609,479.3800659h-237.289978v-22.2200317h237.289978
	V479.3800659z M443.9499512,479.3800659h-40.7399902v-32.2200317c0-5.5199585-4.4799805-10-10-10h-35.6099854
	l-30.4599609-155.0099487c0-0.0100098,0-0.0100098-0.0100098-0.0200195L302.3900146,156.210083
	c-0.0100098-0.0200195-0.0200195-0.0500488-0.0200195-0.0700073l-3.5599976-18.1300049
	c8.7200317-6.7000122,15.25-15.7999878,18.8800049-26.0499878l43.7399292-11.6799927
	c5.3400879-1.4200439,8.5100098-6.9000244,7.0800781-12.2300415c-1.4199219-5.3399658-6.9100342-8.5100098-12.2399902-7.0899658
	l-35.4299316,9.4599609c-0.3901367-8.0199585-2.5700684-15.9599609-6.2401123-23.0899658l168.9700928-45.0900307L489.75,45.3400841
	l-46.8499756,12.5c-5.3299561,1.4299927-8.5100098,6.909977-7.0799561,12.239994
	c1.4199219,5.3399658,6.8999023,8.5100098,12.2399902,7.0899658L488.25,66.4400635l-59.2900391,241.0100098
	c-11.6099854,0.1199951-22.9499512,4-32.3299561,11.25c-12.289917,9.5100098-19.7000732,23.7699585-20.3199463,39.1400146
	c-0.0600586,1.4599609-0.0600586,2.9299927,0,4.3899536c0.619873,15.3600464,8.0300293,29.6199951,20.3199463,39.1300049
	c9.5299072,7.3699951,21.0899658,11.2600098,32.8900146,11.2600098c3.8100586,0,7.6398926-0.4099731,11.4399414-1.2299805
	c0.2099609-0.0499878,0.4200439-0.1000366,0.630127-0.1600342l2.3598633-0.6699829V479.3800659z M492,479.3800659h-28.0500488
	v-74.539978l28.0500488-8V479.3800659z M492,376.0400391l-55.5700684,15.8699951
	c-9.6899414,2.0100098-19.7199707-0.2999878-27.5599365-6.3799438
	c-7.6099854-5.8800049-12.1900635-14.6700439-12.5799561-24.1000366c-0.0300293-0.9299927-0.0300293-1.8599854,0-2.789978
	c0.3898926-9.4500122,4.9699707-18.2300415,12.5799561-24.1199951c4.460083-3.4500122,9.6400146-5.6900024,15.0599365-6.6100464
	l-7.3199463,29.7300415c-1.3199463,5.3599854,1.960083,10.7799683,7.3199463,12.0999756
	c0.8100586,0.2000122,1.6101074,0.2900391,2.4001465,0.2900391c4.4899902,0,8.579834-3.0500488,9.6999512-7.6100464
	l7.8999023-32.1199951L492,344.0300903V376.0400391z"/>
<rect y="0.0000577" fill="none" width="512" height="500"/>
<path d="M392.7539978,83.7300415c1.5979614,3.8399963,5.5509949,6.375,9.7189636,6.1570129
	c4.1830139-0.2190247,7.8430481-3.0820007,9.0740051-7.0820007c1.2030334-3.9179993-0.2149658-8.3520203-3.4769592-10.8320007
	c-3.4720154-2.644989-8.3510132-2.7229919-11.9100037-0.1960144
	C392.4059753,74.44104,391.0159912,79.4920349,392.7539978,83.7300415L392.7539978,83.7300415z M392.7539978,83.7300415"/>
<path fill="#D71F34" d="M108.8499756,167.710083l80.8400269-21.5500488l-4.7200317-19.4400024l-81.289978,21.6700439
	L97.5,125.3000488l81.8200073-21.8099976l-4.7200317-19.4500122l-82.2699585,21.9400024L73.039978,33.8900719
	c-1.4299927-5.3300171-6.9099731-8.5-12.25-7.0700073L7.5599976,41.0600548
	c-4.2600098,1.1400146-7.2700195,4.9400024-7.4099731,9.3599854
	c-2.3200073,75.5599976,22.5799561,126.8800049,43.8899536,156.6199951
	c23.3200073,32.5599976,47.2900391,47.0100098,48.3000488,47.6100464c1.5599976,0.9299927,3.3199463,1.4099731,5.0999756,1.4099731
	c0.8699951,0,1.7399902-0.1199951,2.5900269-0.3400269l20.539978-5.5c5.3399658-1.4299927,8.5100098-6.9099731,7.0800171-12.25
	L108.8499756,167.710083z M99.2299805,235.2300415C83.710022,224.210083,19.3099976,171.5900879,20,58.4400597l36.2999878-9.710022
	l49.4500122,184.75L99.2299805,235.2300415z"/>
</svg>
