<?xml version="1.0" encoding="utf-8"?>
<!-- Generator: Adobe Illustrator 25.3.1, SVG Export Plug-In . SVG Version: 6.00 Build 0)  -->
<svg version="1.1" id="Слой_1" xmlns="http://www.w3.org/2000/svg" xmlns:xlink="http://www.w3.org/1999/xlink" x="0px" y="0px"
	 viewBox="0 0 193.510498 33.6030426" style="enable-background:new 0 0 193.510498 33.6030426;" xml:space="preserve">
<g>
	<path style="fill-rule:evenodd;clip-rule:evenodd;fill:#235F8C;" d="M46.2067108,1.4728851
		c-1.0462494,0.1513672-2.3921509,0.5867615-3.5384674,1.7325287l-2.6861267,2.6864014l-1.424118-0.381546L35.9234772,8.144516
		l1.5652924,0.4195099l0.8135529,0.8129883l0.812973,0.8132629l0.4195251,1.565567l2.6342316-2.6345215l-0.3815308-1.4238434
		l2.6863861-2.6863861C45.6199493,3.8653259,46.0553589,2.5188751,46.2067108,1.4728851L46.2067108,1.4728851z
		 M38.1608582,11.3394318c-1.5431671,1.5434723-3.0871887,3.0874786-4.6309662,4.6309509v12.6621094h-6.2208862v-6.440918
		l-1.0947418,1.0947571v5.3461609h-6.2212067V27.385788c-0.4470215-0.1595764-0.7704468-0.401947-1.0953064-0.7270813v1.9737854
		h-6.2211914v-8.1946869l-2.0154266-2.0157471v-0.0048065c-0.0065308-0.0062103-0.0150299-0.0118866-0.023819-0.0158691
		c-0.0045319-0.0014038-0.0141754-0.0028381-0.0275116-0.0031128c-0.0135803,0-0.022934,0.0011139-0.0274963,0.0031128
		c-0.0084991,0.0036926-0.0172882,0.0093689-0.0235291,0.0158691v0.0048065l-8.7375183,8.7378387L0,25.3386078l8.7355347-8.7352295
		c0.2684479-0.2565308,0.5162201-0.4325714,0.8609009-0.5765686c0.3154907-0.131546,0.6582031-0.2046661,1.0136719-0.2043762
		c0.3551636,0,0.6981659,0.0725403,1.0133667,0.2043762c0.3248444,0.135498,0.6117249,0.3271332,0.8603058,0.5759735
		l4.3052673,4.3052979l4.0090485,4.0090179c0.064621,0.0646667,0.0787964,0.0643616,0.1431427,0l15.406311-15.3909912
		L38.1608582,11.3394318L38.1608582,11.3394318z"/>
	<path style="fill-rule:evenodd;clip-rule:evenodd;fill:#89A9B9;" d="M33.529892,0v10.7795868l-6.2208862,6.2206421L27.3087006,0
		H33.529892L33.529892,0z M18.8980408,8.7610474l-0.0002899,12.7065735l-6.2209015-6.2211914V8.7610474H18.8980408
		L18.8980408,8.7610474z M26.213974,4.3803864V18.09552l-5.344162,5.344162l-0.8767548-0.8767395V4.3803864H26.213974
		L26.213974,4.3803864z"/>
	<path style="fill:#235F8C;" d="M45.9720154,28.6324921V12.5832825h8.7825928v1.9836578h-6.6648254v4.4804382h1.7163696
		c1.7237396,0,3.075882,0.3566284,4.0566864,1.0700989c1.114563,0.8172302,1.6718597,2.0579529,1.6718597,3.7224426
		c0,1.6642456-0.5572968,2.9052734-1.6718597,3.7224731c-0.9808044,0.713501-2.3329468,1.0700989-4.0566864,1.0700989H45.9720154
		L45.9720154,28.6324921z M190.4346313,28.6324921h-1.983963v-9.6072083h-3.0761719v-1.828064h8.1360016v1.828064h-3.0758667
		V28.6324921L190.4346313,28.6324921z M181.6404266,20.0392456l-2.9460449,8.5932465h-2.0916901l4.23526-11.4352722h1.6497498
		l4.23526,11.4352722h-2.0917053L181.6404266,20.0392456L181.6404266,20.0392456z M165.5994568,22.8588715
		c0,1.1443481,0.3939972,2.1290894,1.1817474,2.9537048c0.7874603,0.824585,1.7532501,1.2373047,2.8975983,1.2373047
		c1.0403137,0,1.9541931-0.4200745,2.7416534-1.2594299c0.7877502-0.8399048,1.1814728-1.7796021,1.1814728-2.8199005
		c0-1.0998383-0.3860626-2.0729523-1.1590576-2.9202271c-0.7727509-0.8467407-1.7090149-1.2704926-2.8085938-1.2704926
		c-1.099823,0-2.0471802,0.4050598-2.8420105,1.2148895C165.9971466,20.8045959,165.5994568,21.7593231,165.5994568,22.8588715
		L165.5994568,22.8588715z M175.4745178,28.6324921h-1.8725891v-1.605011
		c-1.2183228,1.2333374-2.5633545,1.8501587-4.0345459,1.8501587c-1.7237549,0-3.1541138-0.5722656-4.2910767-1.7163391
		c-1.1367035-1.1443481-1.7050476-2.5783997-1.7050476-4.3024292c0-1.6492157,0.5646667-3.0534668,1.6940002-4.2128601
		c1.129303-1.1591034,2.5188599-1.7384796,4.168335-1.7384796c1.5604706,0,2.9199829,0.5944366,4.0793457,1.7832489v-1.4935608
		h1.9615784V28.6324921L175.4745178,28.6324921z M160.4877319,24.8207245h2.1398621
		c-0.9807739,2.7493591-2.8309326,4.1238403-5.5505066,4.1238403c-1.7089996,0-3.1206665-0.5759888-4.2349701-1.727417
		c-1.1145782-1.1520081-1.6718597-2.5820923-1.6718597-4.2910919c0-1.7387695,0.5683441-3.180191,1.7053223-4.3245239
		c1.1366882-1.1443634,2.5670471-1.7163849,4.290802-1.7163849c1.3226471,0,2.4559326,0.3529053,3.3993225,1.059021
		c0.943634,0.7058258,1.6307526,1.6902924,2.0618896,2.9534302h-2.1398621
		c-0.6389313-1.426712-1.8056641-2.1401978-3.4996338-2.1401978c-1.0998688,0-2.0061035,0.412735-2.719574,1.2373199
		c-0.7131958,0.8246155-1.069809,1.7943726-1.069809,2.9089508c0,1.1443176,0.3566132,2.1177368,1.069809,2.9199524
		c0.7432404,0.8472595,1.6795349,1.2704773,2.8085632,1.2704773
		C158.8011169,27.094101,159.9378052,26.3364105,160.4877319,24.8207245L160.4877319,24.8207245z M142.3267212,23.7285614v4.9039307
		h-1.9394531V17.1972198h1.9394531v4.7925568h5.5502472v-4.7925568h1.9391937v11.4352722h-1.9391937v-4.9039307H142.3267212
		L142.3267212,23.7285614z M129.1583862,22.9147034c0,1.1332855,0.3719025,2.1030121,1.1145782,2.9055328
		c0.7432404,0.8058777,1.6792297,1.2072449,2.8085632,1.2072449c1.1145782,0,2.0471802-0.4047546,2.7978058-1.2185974
		c0.7503357-0.809845,1.1253357-1.7759094,1.1253357-2.8941803c0-1.1624603-0.375-2.1472473-1.1253357-2.9497223
		c-0.7506256-0.8061829-1.6979675-1.2075806-2.8420258-1.2075806c-1.1145782,0-2.0398102,0.4087677-2.7753906,1.2299652
		C129.5263062,20.8045959,129.1583862,21.7817078,129.1583862,22.9147034L129.1583862,22.9147034z M139.0334473,22.7698669
		c0,1.6494598-0.5796814,3.0911713-1.7387695,4.324234c-1.1590881,1.2336426-2.563385,1.8504639-4.21315,1.8504639
		c-1.6491852,0-3.0534821-0.5910339-4.2128601-1.7722168c-1.1590729-1.1814575-1.7387695-2.5970764-1.7387695-4.2462921
		c0-1.6200104,0.5723267-3.0464172,1.7163849-4.2800446c1.1443481-1.2330475,2.5188751-1.8498688,4.1238403-1.8498688
		c1.6197205,0,3.0353394,0.5904541,4.2463074,1.7722015C138.4276733,19.7495575,139.0334473,21.1501312,139.0334473,22.7698669
		L139.0334473,22.7698669z M119.4468842,12.5832825v16.0492096h-2.1174774V12.5832825H119.4468842L119.4468842,12.5832825z
		 M125.5767975,28.6324921l-5.9071045-8.091507l6.1746979-7.9577026h2.5409851l-6.4009094,7.9537201l6.267395,8.0954895H125.5767975
		L125.5767975,28.6324921z M106.3261566,22.9147034c0,1.1332855,0.3719177,2.1030121,1.1145935,2.9055328
		c0.7432251,0.8058777,1.6792297,1.2072449,2.808548,1.2072449c1.1145935,0,2.0471954-0.4047546,2.797821-1.2185974
		c0.7503204-0.809845,1.1256256-1.7759094,1.1256256-2.8941803c0-1.1624603-0.3753052-2.1472473-1.1256256-2.9497223
		c-0.7506256-0.8061829-1.6979675-1.2075806-2.842041-1.2075806c-1.114563,0-2.0398102,0.4087677-2.7753906,1.2299652
		C106.6940918,20.8045959,106.3261566,21.7817078,106.3261566,22.9147034L106.3261566,22.9147034z M116.2012177,22.7698669
		c0,1.6494598-0.5796814,3.0911713-1.7387543,4.324234c-1.1591187,1.2336426-2.563385,1.8504639-4.2131653,1.8504639
		c-1.6491852,0-3.0534821-0.5910339-4.2128448-1.7722168c-1.158783-1.1814575-1.7387695-2.5970764-1.7387695-4.2462921
		c0-1.6200104,0.5723114-3.0464172,1.7163849-4.2800446c1.1443634-1.2330475,2.5188599-1.8498688,4.1238556-1.8498688
		c1.6199799,0,3.0353241,0.5904541,4.2462769,1.7722015C115.595459,19.7495575,116.2012177,21.1501312,116.2012177,22.7698669
		L116.2012177,22.7698669z M93.1388245,22.8367462c0,1.114563,0.3863525,2.0916748,1.1587982,2.9313354
		c0.7727203,0.8396301,1.7090149,1.2593994,2.8088531,1.2593994c1.1142883,0,2.0653229-0.4013672,2.8530731-1.2038574
		c0.787735-0.8022156,1.1814728-1.7606201,1.1814728-2.8751984c0-1.1593323-0.3903351-2.1475067-1.1704254-2.9647217
		c-0.7800903-0.8175354-1.7421722-1.2263031-2.8865204-1.2263031c-1.0550537,0-1.9763184,0.4161224-2.7640686,1.2483978
		C93.532547,20.8380585,93.1388245,21.7817078,93.1388245,22.8367462L93.1388245,22.8367462z M97.3329773,28.8997955
		c-1.5233612,0-2.8904877-0.5944214-4.1051483-1.7832947v6.4865417h-1.9615784V17.1748352h1.9615784v1.5383759
		c1.1888428-1.188858,2.5041199-1.7832947,3.9452515-1.7832947c1.7387848,0,3.172821,0.5680695,4.3024445,1.7050476
		c1.1290436,1.1369781,1.6939697,2.5746918,1.6939697,4.3134613c0,1.6344757-0.5425415,3.03508-1.6310577,4.2015228
		C100.4499359,28.3166962,99.0493622,28.8997955,97.3329773,28.8997955L97.3329773,28.8997955z M81.0626526,14.6559753v13.9765167
		h-2.1174774V12.5832825h10.9669647v16.0492096h-2.1174774V14.6559753H81.0626526L81.0626526,14.6559753z M68.2514801,25.1552277
		h2.0877228c0,0.6091614,0.2675934,1.1069031,0.802475,1.4932861c0.4867249,0.3565979,1.0513763,0.5349121,1.6866302,0.5349121
		c1.8243713,0,2.7342834-0.5870667,2.7342834-1.7608948c0-0.5201721-0.2154236-0.9657898-0.6425934-1.3373718
		c-0.4272003-0.3716431-1.3969269-0.5572815-2.9015656-0.5572815V21.967392c1.3708496,0,2.255249-0.1743469,2.6453094-0.52388
		c0.3900452-0.3489227,0.5867615-0.7763977,0.5867615-1.2815094c0-1.0700989-0.7466431-1.6049957-2.2436218-1.6049957
		c-1.5976105,0-2.4000854,0.5646667-2.4000854,1.6940002h-1.9990082c0-1.1591034,0.4683075-2.0505981,1.4045715-2.6748047
		c0.8022003-0.5201416,1.8127747-0.7800598,3.0313721-0.7800598c1.1296082,0,2.0879974,0.2673035,2.8757629,0.802475
		c0.9065094,0.624176,1.3594818,1.4785461,1.3594818,2.563385c0,1.1590729-0.7282257,1.9541931-2.1843719,2.3850555
		c1.6642151,0.5944366,2.4964752,1.5601959,2.4964752,2.8978729c0,1.0400391-0.5425415,1.9093933-1.6270905,2.6078796
		c-0.9362793,0.5943909-1.9615784,0.8917542-3.0761719,0.8917542c-1.2035675,0-2.2512512-0.3197327-3.1430359-0.9586792
		C68.7492523,27.2579498,68.2514801,26.3140411,68.2514801,25.1552277L68.2514801,25.1552277z M58.7239532,28.6324921h-1.8351593
		V17.1972198h1.9391937v8.4704895l6.2191925-8.4704895h1.8501892v11.4352722H64.935791v-8.4965668L58.7239532,28.6324921
		L58.7239532,28.6324921z M48.0897827,21.0313568v5.617157h1.7163696c1.1440735,0,1.9910583-0.1783142,2.5412598-0.5349121
		c0.6834564-0.4311218,1.0250092-1.1888733,1.0250092-2.2736816c0-1.0995331-0.334198-1.8651733-1.0028992-2.2957458
		c-0.5348816-0.3421326-1.3895416-0.5128174-2.5633698-0.5128174H48.0897827L48.0897827,21.0313568z"/>
</g>
</svg>
