<?xml version="1.0" encoding="utf-8"?>
<!-- Generator: Adobe Illustrator 25.3.1, SVG Export Plug-In . SVG Version: 6.00 Build 0)  -->
<svg version="1.1" id="Layer_1" xmlns="http://www.w3.org/2000/svg" xmlns:xlink="http://www.w3.org/1999/xlink" x="0px" y="0px"
	 viewBox="-49 141 512 512" enable-background="new -49 141 512 512" xml:space="preserve">
<g>
	<path d="M256.553009,551.7189941h-38.7990112c-5.5220032,0-9.9989929,4.4760132-9.9989929,9.9990234
		c0,5.5229492,4.4769897,9.9989624,9.9989929,9.9989624h38.7990112c5.9880066,0,10.8599854,4.8710327,10.8599854,10.8590088
		s-4.8710022,10.8590088-10.8599854,10.8590088H152.1089935c-15.6999969,0-30.4640045-6.9219971-40.5039978-18.9920044
		l-24.977005-30.0219727c-13.4020004-16.1100464-32.9069977-25.5450439-53.7770004-26.1420288v-59.0670166h36.8160019
		c18.1560059,0,35.3470001,6.9440002,48.4080048,19.552002l53.9080048,52.0349731
		c3.8110046,3.6790161,3.9889984,9.8389893,0.3959961,13.7310181c-3.6620026,3.9660034-9.878006,4.2250366-13.8569946,0.5780029
		l-42.322998-38.79599c-4.0690002-3.7309875-10.3950043-3.4570007-14.1260071,0.6140137
		c-3.7319946,4.0710144-3.4570007,10.3960266,0.6139984,14.1269836l42.322998,38.7960205
		c5.7079926,5.2319946,12.9309998,7.81604,20.1360016,7.81604c8.0440063,0,16.0650024-3.2210693,21.9279938-9.5720215
		c10.9060059-11.8150024,10.3670044-30.5130005-1.2019958-41.6810303l-53.9080048-52.0349731
		c-16.8090057-16.2260132-38.9329987-25.1619873-62.2969971-25.1619873H30.9089966
		c-3.762001-8.9039917-12.5849991-15.1690063-22.8430023-15.1690063h-47.0669937
		c-5.5219994,0-9.9990005,4.4760132-9.9990005,9.9989929v73.1170044c0,5.5220032,4.4770012,9.9989929,9.9990005,9.9989929
		s9.9989986-4.4760132,9.9989986-9.9989929v-63.118988H8.0670013c2.6399994,0,4.7869987,2.1480103,4.7869987,4.7869873v80.1430054
		c0,2.6390381-2.1469994,4.7869873-4.7869987,4.7869873H-2.3180008c-5.5219994,0-9.9990005,4.4760132-9.9990005,9.9990234
		c0,5.5219727,4.4770012,9.9989624,9.9990005,9.9989624H8.0659981c10.3959999,0,19.3110008-6.4359741,22.9860039-15.5310059
		c15.5879974,0.0889893,30.2269974,6.9920044,40.2030029,18.9840088l24.977005,30.0220337
		c13.852005,16.651001,34.2180023,26.1999512,55.8769989,26.1999512H256.553009
		c17.0140076,0,30.8569946-13.84198,30.8569946-30.8569336C287.4100037,565.5610352,273.5669861,551.7189941,256.553009,551.7189941
		z"/>
	<path d="M453.0010071,272.934021c-5.5220032,0-9.9989929,4.4759827-9.9989929,9.9989624v67.0250244h-37.0690002
		c-2.6400146,0-4.7869873-2.1480103-4.7869873-4.7869873v-80.1430054c0-2.6390076,2.1470032-4.7870178,4.7869873-4.7870178h9.651001
		c5.5220032,0,9.9989929-4.4759827,9.9989929-9.9989929c0-5.5220032-4.4769897-9.9989929-9.9989929-9.9989929h-9.651001
		c-10.3959961,0-19.3110046,6.4359894-22.9859924,15.5309906c-15.5880127-0.0890045-30.2269897-6.9919891-40.2030029-18.9839935
		l-24.9769897-30.0210114c-13.8510132-16.651001-34.2179871-26.201004-55.8779907-26.201004H157.4470062
		c-17.0139923,0-30.8569946,13.8420105-30.8569946,30.8560028s13.8430023,30.8560028,30.8569946,30.8560028h42.7079926
		c5.5220032,0,9.9989929-4.4759979,9.9989929-9.9989929c0-5.5230103-4.477005-9.9990082-9.9989929-9.9990082H157.446991
		c-5.9880066,0-10.8600006-4.8710022-10.8600006-10.8589935c0-5.9869995,4.8710022-10.8590088,10.8600006-10.8590088h104.4430237
		c15.7009888,0,30.4649963,6.9219971,40.5050049,18.9920044l24.9769897,30.0209961
		c13.401001,16.1100159,32.9070129,25.5450134,53.7770081,26.1430054v59.0669861h-36.8160095
		c-18.1560059,0-35.3469849-6.9439697-48.4079895-19.552002l-53.9079895-52.0349731
		c-3.8110046-3.6790161-3.9890137-9.8380127-0.3959961-13.7310181c3.6619873-3.9670105,9.8779907-4.2250061,13.8569946-0.5780029
		l42.3240051,38.7960205c4.0710144,3.7309875,10.3940125,3.4569702,14.1270142-0.6140137
		c3.7309875-4.0709839,3.4559937-10.3959961-0.6149902-14.1270142l-42.3240662-38.7949829
		c-12.0799866-11.072998-30.947998-10.2839966-42.0639954,1.7559967
		c-10.9060059,11.8159943-10.3670044,30.5139923,1.2019958,41.681015l53.9079895,52.0349731
		c16.8089905,16.2260132,38.9330139,25.1620178,62.2969971,25.1620178h38.7579956
		c3.7619934,8.9040222,12.5849915,15.1690063,22.8429871,15.1690063h47.0679932
		c5.5220032,0,9.9990234-4.4759827,9.9990234-9.9989929v-77.0239868C463,277.4100037,458.5230103,272.934021,453.0010071,272.934021
		z"/>
	<path d="M260.6260071,515.6390381c-5.0639954,2.2049561-7.3800049,8.0969849-5.1749878,13.1589355
		c1.6380005,3.7630615,5.3139954,6.0090332,9.1719971,6.0090332c1.3330078,0,2.6870117-0.2680054,3.9869995-0.8339844
		c0.0419922-0.0180664,0.1740112-0.0770264,0.2149963-0.0950317c5.0329895-2.2730103,7.2860107-8.2019653,5.0130005-13.2349854
		C271.5639954,515.6109619,265.6539917,513.3659668,260.6260071,515.6390381z"/>
	<path d="M284.6960144,501.6990051c-4.4549866,3.2619934-5.4230042,9.5190125-2.1610107,13.9739685
		c1.9590149,2.6750488,4.9949951,4.0930176,8.0750122,4.0930176c2.0499878,0,4.118988-0.6279907,5.8989868-1.9310303
		c0.0159912-0.0109863,0.1099854-0.0809326,0.125-0.09198c4.4289856-3.2799683,5.3269958-9.4960022,2.0589905-13.9339905
		C295.4240112,499.368988,289.1409912,498.4450073,284.6960144,501.6990051z"/>
	<path d="M234.0679932,524.1489868c-5.3840027,1.0690308-8.9039917,6.2839966-7.8720093,11.684021
		c0.9159851,4.789978,5.1069946,8.1229248,9.8099976,8.1229248c0.6220093,0,1.2550049-0.05896,1.8880005-0.1799316
		c0.0650024-0.0130615,0.2290039-0.0460205,0.2950134-0.0600586c5.3999939-1.1449585,8.8380127-6.4469604,7.6950073-11.8479614
		C244.7449951,526.4830322,239.4580078,523.0350342,234.0679932,524.1489868z"/>
	<path d="M319.5809937,482.0610046c-4.1000061-3.697998-10.42099-3.3729858-14.1210022,0.7279968
		c-0.0490112,0.0549927-0.1640015,0.1849976-0.2120056,0.2399902c-3.6080017,4.1809998-3.1419983,10.4949951,1.0390015,14.1019897
		c1.8890076,1.6300049,4.2130127,2.428009,6.526001,2.428009c2.7770081,0,5.5379944-1.1499939,7.5119934-3.3940125
		C324.0069885,492.0639954,323.6759949,485.7539978,319.5809937,482.0610046z M313.9970093,490.4920044l-1.1119995-1.006012
		l1.20401,1.0859985L313.9970093,490.4920044z"/>
	<path d="M345.0310059,427.8729858c-5.2839966-1.6029968-10.8739929,1.4119873-12.4769897,6.696991
		c-1.6239929,5.2779846,1.3380127,10.8729858,6.6159973,12.4970093c0.9790039,0.302002,1.9689941,0.4450073,2.9429932,0.4450073
		c4.2739868,0,8.2309875-2.7619934,9.553009-7.0610046l0.0419922-0.1369934
		C353.3099976,435.0289917,350.3150024,429.4750061,345.0310059,427.8729858z"/>
	<path d="M357.7650146,375.8859863c-1.1289978-5.4039917-6.4249878-8.8609924-11.8269958-7.7339783
		c-5.3829956,1.1219788-8.8439941,6.3860168-7.7600098,11.7680054c0.9169922,4.7709961,5.0979919,8.1100159,9.8059998,8.1100159
		c0.5849915,0,1.1789856-0.0510254,1.7739868-0.15802c5.4360046-0.9730225,9.053009-6.1690063,8.0799866-11.6049805
		C357.8160095,376.1400146,357.7919922,376.0130005,357.7650146,375.8859863z"/>
	<path d="M348.6679993,397.9620056c-5.4830017-0.4840088-10.3529968,3.5809937-10.8380127,9.0809937
		c-0.0090027,0.0969849-0.0230103,0.2940063-0.0289917,0.3909912c-0.3240051,5.5130005,3.881012,10.2449951,9.3940125,10.5690002
		c0.2000122,0.0119934,0.3980103,0.0180054,0.5960083,0.0180054c5.2059937,0,9.5809937-4.026001,9.9639893-9.2690125
		C358.2109985,403.2720032,354.1530151,398.4460144,348.6679993,397.9620056z"/>
	<path d="M335.2430115,456.3250122c-4.7999878-2.7210083-10.9060059-1.0350037-13.6279907,3.769989l-0.1390076,0.25
		c-2.6329956,4.8540039-0.8559875,10.9670105,3.9970093,13.6000061c1.5270081,0.8280029,3.1700134,1.2210083,4.7890015,1.2210083
		c3.5289917,0,6.9379883-1.8720093,8.7430115-5.2000122l-8.6919861-4.9419861l8.6990051,4.9299927
		C341.7349854,465.1489868,340.0480042,459.0480042,335.2430115,456.3250122z"/>
	<path d="M144.9320068,280.3770142c1.5140076,0,3.0500031-0.3420105,4.4909973-1.0620117
		c4.9400024-2.4689941,6.9409943-8.4750061,4.4720001-13.4150085s-8.4779968-6.9429932-13.4140015-4.4719849l-0.0890045,0.0439758
		c-4.9400024,2.4700317-6.8970032,8.4530029-4.427002,13.3920288
		C137.7140045,278.3630066,141.2579956,280.3770142,144.9320068,280.3770142z"/>
	<path d="M172.9629974,269.9539795c0.8240051,0,1.6620026-0.1029663,2.4980011-0.3179932
		c5.3659973-1.3009949,8.6620026-6.7059937,7.3609924-12.072998c-1.3009949-5.3649902-6.6990051-8.6629944-12.0740051-7.3609924
		c-0.0460052,0.0110168-0.1880035,0.0469971-0.2339935,0.0590057c-5.3480072,1.378006-8.5870056,6.8350067-7.2100067,12.1819916
		C164.4669952,266.9550171,168.5140076,269.9539795,172.9629974,269.9539795z"/>
	<path d="M119.6060028,296.6409912c2.1820068,0,4.3809967-0.7119751,6.2220001-2.177002l0.1320038-0.1059875
		c4.2899933-3.4649963,4.9539948-9.7420044,1.4960022-14.0390015s-9.7539978-4.9720154-14.0559998-1.5220032l6.1990051,7.8450012
		l-6.2290039-7.821991c-4.3200073,3.4400024-5.0330048,9.7299805-1.5939941,14.0499878
		C113.7519989,295.3500061,116.6649933,296.6409912,119.6060028,296.6409912z"/>
	<path d="M69.1299973,370.9110107c0.7919998,0.1919861,1.5839996,0.2839966,2.3639984,0.2839966
		c4.4860001,0,8.5620041-3.0440063,9.6980057-7.5809937c1.3710022-5.2880249-1.7619934-10.7109985-7.048996-12.1530151
		c-5.3280029-1.4519958-10.8239975,1.6870117-12.2770004,7.0150146c-0.0250015,0.0910034-0.072998,0.2799683-0.0960007,0.3719788
		C60.4700012,364.2130127,63.7659988,369.6080017,69.1299973,370.9110107z"/>
	<path d="M66.8919983,400.9079895c0.1019974,0.0029907,0.2020035,0.0050049,0.3030014,0.0050049
		c5.3600006,0,9.7890015-4.2530212,9.9869995-9.6369934c0.25-5.4589844-3.9380035-10.117981-9.4090042-10.4360046
		c-5.5270004-0.3070068-10.2409973,3.8919983-10.560997,9.4040222c-0.0080032,0.1289673-0.0130005,0.2569885-0.0169983,0.3849792
		C57.0329971,396.1459961,61.3740005,400.7430115,66.8919983,400.9079895z"/>
	<path d="M77.6240005,342.0410156c1.4180069,0.6989746,2.9209976,1.0289917,4.4039993,1.0289917
		c3.6719971,0,7.2070007-2.0319824,8.9589996-5.5319824c2.4900055-4.8730164,0.5980072-10.8530273-4.2599945-13.4020081
		c-4.8910065-2.5660095-10.9339981-0.6809998-13.4990005,4.2090149l-0.163002,0.321991
		C70.6279984,333.6199951,72.6719971,339.6019897,77.6240005,342.0410156z"/>
	<path d="M92.1289978,315.6740112c1.8359985,1.4569702,4.026001,2.1629639,6.2019958,2.1629639
		c2.9329987,0,5.8410034-1.2839966,7.8159943-3.7459717c3.4640045-4.2470093,2.8639984-10.5030212-1.3619995-14.0120239
		c-4.2489929-3.5269775-10.5529938-2.9419861-14.0800018,1.3060303c-0.0480042,0.0589905-0.1580048,0.1950073-0.2059937,0.2539673
		C87.0709991,305.9660034,87.8040009,312.2440186,92.1289978,315.6740112z"/>
	<path d="M67.4680023,410.9490051c-5.435997,0.973999-9.0530014,6.1690063-8.0800018,11.605011l0.0179977,0.0979919
		c0.8659973,4.8330078,5.0630035,8.1900024,9.8040009,8.1900024c0.5910034,0,1.1900024-0.052002,1.7919998-0.1600037
		c5.435997-0.9729919,9.0449982-6.2179871,8.0709991-11.6539917
		C78.0999985,413.5920105,72.901001,409.9750061,67.4680023,410.9490051z"/>
	<path fill="#D71E34" d="M144.2810059,425.230011c0.0639954,0.0539856,0.1300049,0.1069946,0.1959991,0.1600037
		l56.9810028,45.1119995c1.8179932,1.4400024,4.0119934,2.1589966,6.2059937,2.1589966
		c2.20401,0,4.4079895-0.7260132,6.230011-2.178009l59.394989-47.3099976
		c0.2909851-0.2309875,0.5679932-0.4790039,0.8309937-0.7409973c8.7990112-8.7749939,13.6440125-20.4500122,13.6440125-32.875
		c0-25.6029968-20.82901-46.4320068-46.4320068-46.4320068c-13.0150146,0-25.0740051,5.3670044-33.6669922,14.4240112
		C199.0710144,348.4920044,187.0130005,343.125,173.9980164,343.125c-25.6029968,0-46.4320068,20.8289795-46.4320068,46.4320068
		C127.5659943,403.3720093,133.6589966,416.3739929,144.2810059,425.230011z M173.9980011,363.1229858
		c10.7310028,0,20.3199921,6.4089966,24.4300079,16.3270264c1.548996,3.7349854,5.1940002,6.17099,9.2369995,6.17099
		s7.6879883-2.4349976,9.2369995-6.17099c4.1099854-9.9180298,13.6990051-16.3270264,24.4299927-16.3270264
		c14.5759888,0,26.4349976,11.8590088,26.4349976,26.4349976c0,6.9020081-2.6270142,13.3980103-7.4070129,18.3500061
		l-52.7130127,41.9880066l-50.6499939-40.098999c-5.9960022-5.0440063-9.4329987-12.4129944-9.4329987-20.2380066
		C147.5630035,374.9819946,159.4219971,363.1229858,173.9980011,363.1229858z"/>
	<circle cx="-39.0009995" cy="543.7600098" r="9.963995"/>
	<circle cx="453" cy="250.2399902" r="9.9639931"/>
</g>
</svg>
