<?xml version="1.0" encoding="utf-8"?>
<!-- Generator: Adobe Illustrator 25.3.1, SVG Export Plug-In . SVG Version: 6.00 Build 0)  -->
<svg version="1.1" id="Capa_1" xmlns="http://www.w3.org/2000/svg" xmlns:xlink="http://www.w3.org/1999/xlink" x="0px" y="0px"
	 viewBox="-49 141 512 512" enable-background="new -49 141 512 512" xml:space="preserve">
<path fill="#D71E34" d="M60.1999969,471.5C78.2999954,471.5,93,456.7999878,93,438.7000122
	c0-6.7000122-2.1000061-13-5.6000061-18.2000122l56.3999939-100c0.3000031,0.2000122,0.6000061,0.2000122,0.8999939,0.2999878
	c1.8000031,0.8000183,3.6999969,1.5,5.6999969,2c0.3000031,0.1000366,0.6000061,0.2000122,0.8999939,0.3000183
	c2.3000031,0.5,4.6999969,0.8000183,7.1999969,0.8000183c2.6999969,0,5.3000031-0.4000244,7.8000031-1
	c0.6000061-0.1000366,1.1999969-0.4000244,1.8000031-0.6000366c1.6999969-0.5,3.1999969-1.0999756,4.8000031-1.8999634
	c0.3999939-0.2000122,0.8999939-0.3000183,1.3000031-0.5l37.2000122,50.5c-0.8999939,1.5-1.7000122,3-2.3999939,4.5999756
	c-0.1000061,0.2000122-0.2000122,0.5-0.2999878,0.7000122c-0.6000061,1.6000061-1.1000061,3.2000122-1.5,4.7999878
	c-0.1000061,0.5-0.2000122,0.9000244-0.3000031,1.4000244c-0.3999939,1.8999634-0.6000061,3.8999634-0.6000061,5.8999634
	c0,18.1000061,14.6999969,32.8000183,32.8000031,32.8000183s32.7999878-14.7000122,32.7999878-32.8000183
	c0-1.8999634-0.2000122-3.7999878-0.6000061-5.6999817C271.1999817,381.6000061,271.0999756,381,271,380.5
	c-0.3999939-1.6000061-0.7999878-3.1000061-1.3999939-4.6000061c-0.2999878-0.8999939-0.7000122-1.6999817-1.1000061-2.5
	c-0.1000061-0.3000183-0.2999878-0.6000061-0.3999939-0.8999939l71.6999817-86.3999939
	c4.2999878,2.1000061,9,3.3000183,14.1000061,3.3000183c18.1000061,0,32.7999878-14.7000122,32.7999878-32.8000183
	s-14.7000122-32.8000031-32.7999878-32.8000031S321,238.8999939,321,257c0,7.1000061,2.2999878,13.6000061,6.1000061,19
	l-70.3000183,84.7000122c-5.1000061-3.3000183-11.2000122-5.3000183-17.7999878-5.3000183
	c-5.6000061,0-10.8999939,1.6000061-15.5,4.1000061l-37.3000031-50.7000122c3.1999969-5.0999756,5.1999969-11,5.1999969-17.5
	c0-18.0999756-14.6999969-32.7999878-32.8000031-32.7999878s-32.8000031,14.7000122-32.8000031,32.7999878
	c0,6.7000122,2,13,5.5,18.2000122l-56.5,100.1000061C70.3999863,407.3999939,65.4999847,406,60.1999893,406
	c-18.0999985,0-32.7999954,14.7000122-32.7999954,32.7999878C27.5,456.7999878,42.1999969,471.5,60.1999969,471.5z
	 M353.7999878,240.6000061c9,0,16.3999939,7.2999878,16.3999939,16.3999939c0,9-7.2999878,16.3999939-16.3999939,16.3999939
	c-9,0-16.3999939-7.3000183-16.3999939-16.3999939C337.3999939,247.8999939,344.7000122,240.6000061,353.7999878,240.6000061z
	 M250.3999939,376.2999878L251.5,377.6000061c1.7999878,2.1000061,3.8999939,5.6999817,3.8999939,10.5
	c0,9-7.2999878,16.3999939-16.3999939,16.3999939s-16.3999939-7.2999878-16.3999939-16.3999939
	c0-1.1000061,0.1000061-2.1999817,0.2999878-3.3000183c0-0.1999817,0.1000061-0.3999634,0.2000122-0.5
	c0.2000122-0.8999634,0.3999939-1.6999817,0.7999878-2.5c0-0.0999756,0.1000061-0.0999756,0.1000061-0.1999817
	c2.5-5.8000183,8.2999878-9.8000183,15-9.8000183C243.5,371.7000122,247.5,373.5,250.3999939,376.2999878z M158.6000061,274.7999878
	c9,0,16.3999939,7.3000183,16.3999939,16.4000244c0,4.7999878-2.1000061,9-5.3000031,12c-6,5.5-15.8000031,5.5-21.8999939,0.0999756
	c-3.3999939-3-5.5-7.2999878-5.5-12.1999817C142.1999969,282.2000122,149.5,274.7999878,158.6000061,274.7999878z
	 M60.1999969,422.2999878c9,0,16.4000015,7.2999878,16.4000015,16.3999939c0,9-7.3000031,16.3999939-16.4000015,16.3999939
	c-9,0-16.4000015-7.2999878-16.4000015-16.3999939C43.9000015,429.7000122,51.1999969,422.2999878,60.1999969,422.2999878z"/>
<path d="M428.2000122,143H-14.2000008C-32.2999992,143-47,157.6999969-47,175.8000031s14.7000008,32.8000031,32.7999992,32.8000031
	V479c0,13.6000061,11,24.6000061,24.6000023,24.6000061h78.8000107L40,651h50l13.6999969-41h206.6999969l13.7000122,41h50
	l-49.2000122-147.5h78.8000183c13.6000061,0,24.6000061-11,24.6000061-24.6000061V208.5
	c18.1000061,0,32.7999878-14.6999969,32.7999878-32.8000031C461,157.6999969,446.2999878,143,428.2000122,143z
	 M351.2999878,634.5999756h-15.5l-13.7000122-41H91.8999939l-13.6999969,41h-15.5L106.3999939,503.5h15.5l-19.1000061,57.4000244
	h208.5L292.1999817,503.5h15.5L351.2999878,634.5999756z M288.5,544.5h-163l13.6999969-41h135.6999969L288.5,544.5z
	 M411.7999878,478.8999939c0,4.5-3.7000122,8.2000122-8.2000122,8.2000122h-84.2000122h-50H144.6000061h-50H10.4000015
	c-4.5,0-8.2000008-3.7000122-8.2000008-8.2000122V208.5h409.7000122v270.3999939H411.7999878z M428.2000122,192.1999969H-14.2000008
	c-9,0-16.3999996-7.3000031-16.3999996-16.3999939c0-9,7.3000011-16.3999939,16.3999996-16.3999939h442.5
	c9,0,16.3999939,7.3000031,16.3999939,16.3999939C444.6000061,184.8000031,437.2999878,192.1999969,428.2000122,192.1999969z"/>
</svg>
