<?xml version="1.0" encoding="utf-8"?>
<!-- Generator: Adobe Illustrator 25.3.1, SVG Export Plug-In . SVG Version: 6.00 Build 0)  -->
<svg version="1.1" id="Capa_1" xmlns="http://www.w3.org/2000/svg" xmlns:xlink="http://www.w3.org/1999/xlink" x="0px" y="0px"
	 viewBox="-49 141 512 512" enable-background="new -49 141 512 512" xml:space="preserve">
<path d="M460.0700073,234.9160004l-91-90.9869995C367.1950073,142.0540009,364.6520081,141,362,141H65
	c-16.5419998,0-30,13.4580078-30,30v19.0639954c-49.125,19.2700043-84,67.151001-84,123.0270081c0,5.5220032,4.4780006,10,10,10
	H83.0910034c5.5220032,0,10-4.4779968,10-10V191c0-5.5220032-4.4779968-10-10-10
	C73.4530029,181,64.0570068,182.0469971,55,184.0169983V171c0-5.5140076,4.4860001-10,10-10h287v61
	c0,16.5419922,13.4580078,30,30,30h61v371c0,5.5140381-4.4859924,10-10,10H65c-5.5139999,0-10-4.4859619-10-10v-85.6669922
	c0-5.5219727-4.4779968-10-10-10s-10,4.4780273-10,10V623c0,16.5419922,13.4580002,30,30,30h368c16.5419922,0,30-13.4580078,30-30
	V241.9869995C463,239.3349915,461.9460144,236.7910004,460.0700073,234.9160004z M73.0910034,303.0910034H-28.5580006
	c4.7810001-53.8479919,47.8009949-96.8670044,101.6480026-101.6480103v101.6480103H73.0910034z M372,222v-46.8600006
	L428.8680115,232H382C376.4859924,232,372,227.5140076,372,222z"/>
<path d="M37.9300003,493.9299927C36.0699997,495.789978,35,498.3699951,35,501s1.0690002,5.2099915,2.9300003,7.0690002
	C39.7900009,509.9299927,42.3700027,511,45,511s5.2099991-1.0700073,7.0690002-2.9309998
	C53.9300003,506.2099915,55,503.6300049,55,501s-1.0699997-5.2099915-2.9309998-7.0700073
	C50.2099991,492.0690002,47.6299973,491,45,491S39.7900009,492.0690002,37.9300003,493.9299927z"/>
<path d="M251,348.9089966c0-72.8349915-59.2559967-132.0899963-132.0910034-132.0899963c-5.5220032,0-10,4.4779968-10,10
	v112.0899963H-3.1809998c-5.5219994,0-10,4.4779968-10,10C-13.1809998,421.743988,46.0739975,481,118.9089966,481
	S251,421.743988,251,348.9089966z M190.7449951,262.9320068l-61.8359985,61.8349915v-87.5050049
	C152.3190002,239.3399963,173.6799927,248.6499939,190.7449951,262.9320068z M7.262001,358.9089966h111.6469955
	c2.7599945,0,5.2579956-1.117981,7.0679932-2.9259949c0.0010071-0.0010071,0.0019989-0.0010071,0.0039978-0.0030212
	l78.9089966-78.9079895C221.1809998,296.5390015,231,321.598999,231,348.9089966C231,410.7160034,180.7160034,461,118.9089966,461
	C60.4720001,461,12.3349991,416.0509949,7.262001,358.9089966z"/>
<path fill="#D71E34" d="M241.7319946,506.6040039c0-16.5419922-13.4580078-30-30-30s-30,13.4580078-30,30
	c0,4.4819946,0.9949951,8.7340088,2.7649994,12.5570068l-36.6949921,36.6950073
	c-3.9089966-1.8699951-8.2830048-2.9190063-12.8970032-2.9190063c-16.5419922,0-30,13.4580078-30,30s13.4580078,30,30,30
	s30-13.4580078,30-30c0-4.6369629-1.0579987-9.0310059-2.9440002-12.9539795l36.4900055-36.4899902
	c4.0070038,1.9879761,8.5149994,3.1109619,13.2830048,3.1109619c5.3850098,0,10.4379883-1.4329834,14.8110046-3.927002
	l37.1789856,37.1790161c-1.9119873,3.9450073-2.9859924,8.3689575-2.9859924,13.039978c0,16.5419922,13.4580078,30,30,30
	s30-13.4580078,30-30c0-4.5579834-1.026001-8.8800049-2.8529968-12.7519531l57.0750122-57.0750732
	c4.2090149,2.2540283,9.0140076,3.5360107,14.1130066,3.5360107c16.5419922,0,30-13.4579773,30-29.9999695s-13.4580078-30-30-30
	s-30,13.4580078-30,30c0,4.1459961,0.8460083,8.0970154,2.3729858,11.6919861l-57.6130066,57.6130371
	c-3.9590149-1.9290161-8.4030151-3.0140381-13.0950012-3.0140381c-4.5809937,0-8.9230042,1.0360107-12.8099976,2.8790283
	l-38.2579956-38.2580566C240.9960022,514.1329956,241.7319946,510.45401,241.7319946,506.6040039z M134.904007,592.9379883
	c-5.5139923,0-10-4.4859619-10-10s4.4860077-10,10-10c2.6849976,0,5.1199951,1.0689697,6.9179993,2.7969971
	c0.0399933,0.0419922,0.0749969,0.0870361,0.1159973,0.1279907c0.0480042,0.0480347,0.1000061,0.0880127,0.1490021,0.1339722
	c1.7400055,1.8000488,2.8170013,4.2460327,2.8170013,6.94104
	C144.904007,588.4509888,140.4179993,592.9379883,134.904007,592.9379883z M211.7319946,516.6040039
	c-5.5140076,0-10-4.4859619-10-10c0-5.5140076,4.4859924-10,10-10s10,4.4859924,10,10
	C221.7319946,512.118042,217.2460022,516.6040039,211.7319946,516.6040039z M389.0710144,476.6040039
	c5.5140076,0,10,4.4859924,10,10s-4.4859924,10-10,10s-10-4.4859924-10-10S383.5580139,476.6040039,389.0710144,476.6040039z
	 M300.7359924,582.8959961c0,5.5140381-4.4859924,10-10,10s-10-4.4859619-10-10s4.4859924-10,10-10
	S300.7359924,577.381958,300.7359924,582.8959961z"/>
<path d="M286.3110046,396h52.7789917c5.5220032,0,10-4.4779968,10-10s-4.4779968-10-10-10h-52.7789917
	c-5.5220032,0-10,4.4779968-10,10S280.7879944,396,286.3110046,396z"/>
<path d="M377.5499878,378.9299927c-1.8599854,1.8599854-2.9299927,4.4400024-2.9299927,7.0700073
	s1.0690002,5.210022,2.9299927,7.0690002C379.4099731,394.9290161,381.9799805,396,384.6199951,396
	c2.6300049,0,5.2099915-1.0700073,7.0690002-2.9309998c1.8599854-1.8589783,2.9309998-4.4389954,2.9309998-7.0690002
	s-1.0700073-5.210022-2.9309998-7.0700073C389.8299866,377.0700073,387.25,376,384.6199951,376
	S379.4100037,377.0690002,377.5499878,378.9299927z"/>
<path d="M286.3110046,300h122.1539917c5.5220032,0,10-4.4779968,10-10s-4.4779968-10-10-10H286.3110046
	c-5.5220032,0-10,4.4779968-10,10S280.7879944,300,286.3110046,300z"/>
<path d="M286.3110046,348h122.1539917c5.5220032,0,10-4.4779968,10-10s-4.4779968-10-10-10H286.3110046
	c-5.5220032,0-10,4.4779968-10,10S280.7879944,348,286.3110046,348z"/>
</svg>
