<?xml version="1.0" encoding="utf-8"?>
<!-- Generator: Adobe Illustrator 25.3.1, SVG Export Plug-In . SVG Version: 6.00 Build 0)  -->
<svg version="1.1" id="Слой_1" xmlns="http://www.w3.org/2000/svg" xmlns:xlink="http://www.w3.org/1999/xlink" x="0px" y="0px"
	 viewBox="0 0 384 384.0000305" enable-background="new 0 0 384 384.0000305" xml:space="preserve">
<path fill="#D71F34" d="M136.7189941,235.7149963l11.5660095,11.5660095c4.0079803,4.0039978,10.4879761,4.0039978,14.4919739,0
	l7.2430267-7.2379913c1.1599731,0.5309753,2.3509827,1.022995,3.5499878,1.4729919v10.2379913
	c0,5.6480103,4.5980072,10.2460022,10.2500153,10.2460022h16.3599701c5.6480103,0,10.2460175-4.5979919,10.2460175-10.2460022
	v-10.2379913c1.2030029-0.4499969,2.3940125-0.9420166,3.5539856-1.4729919l7.2430115,7.2379913
	c3.9919739,3.9920044,10.4920044,3.9960022,14.4880066,0l11.5700073-11.5660095
	c3.9919891-3.9960022,3.9919891-10.4960022,0-14.4919891l-7.2420044-7.2430115
	c0.5310059-1.1599884,1.0269775-2.3509979,1.4729767-3.5500031h10.2379913c5.6520081,0,10.2500305-4.5979919,10.2500305-10.25
	v-16.3599854c0-5.6480103-4.5980225-10.2460022-10.2500305-10.2460022h-10.2379913
	c-0.4459991-1.2030029-0.9419708-2.3899994-1.4729767-3.5539856l7.2420044-7.2430267
	c3.9919891-3.9919739,3.9919891-10.4959869,0-14.4879913l-11.5700073-11.5700073
	c-3.9960022-3.9959869-10.4960327-3.9919891-14.4920044,0l-7.2390137,7.2420044
	c-1.1599731-0.5310059-2.3509827-1.0269928-3.5539856-1.4729919V132.25c0-5.6520081-4.5980072-10.25-10.2460175-10.25h-16.3599701
	c-5.6520081,0-10.2500153,4.5979919-10.2500153,10.25v10.2380066c-1.2030029,0.4499969-2.3940125,0.9419861-3.5499878,1.4729919
	l-7.2430267-7.2420044c-4.0039978-4.0039978-10.4879913-4.0039978-14.4919739,0l-11.5660095,11.5700073
	c-3.9960022,3.9920044-3.9960022,10.4960175,0,14.4920044l7.2379913,7.2390137
	c-0.5310059,1.1599731-1.022995,2.3509827-1.4730072,3.5539856h-10.2379913c-5.647995,0-10.2460022,4.5979919-10.2460022,10.2460022
	v16.3599854c0,5.6520081,4.5980072,10.25,10.2460022,10.25h10.2379913c0.4500122,1.2030029,0.9420013,2.3900146,1.4730072,3.5500031
	l-7.2379913,7.2430115C132.7229919,225.2189941,132.7229919,231.7189941,136.7189941,235.7149963L136.7189941,235.7149963z
	 M143.1909943,199.1759949h-9.9410095v-14.3559875h9.9410095c4.3250122,0,8.1959839-2.7220001,9.6409912-6.7810059
	c0.4690094-1.3119965,1.0039978-2.6090088,1.602005-3.8590088c1.8470001-3.894989,1.0350037-8.5629883-2.0200043-11.6179962
	l-7.0310059-7.0309906l10.1480103-10.1480103l7.0309906,7.0310059c3.0550079,3.0549927,7.7230072,3.8670044,11.6220093,2.0159912
	c1.2459869-0.5899963,2.5429993-1.1289825,3.855011-1.5979919c4.0589905-1.4450073,6.7849884-5.3200073,6.7849884-9.6409912V133.25
	h14.3560028v9.9410095c0,4.3209839,2.7259979,8.1959839,6.7809906,9.6409912
	c1.3119965,0.4649963,2.609024,1.0039978,3.8630219,1.5979919c3.8909912,1.8510132,8.5589905,1.0390015,11.6139832-2.0159912
	l7.0309906-7.0310059l10.1480255,10.1480103l-7.0310059,7.0309906c-3.0550079,3.0550079-3.8630066,7.7230072-2.0159912,11.6179962
	c0.5939941,1.25,1.1329803,2.5500031,1.5979767,3.8590088c1.4450073,4.0590057,5.3200073,6.7810059,9.6410065,6.7810059h9.9409943
	v14.3559875h-9.9409943c-4.3209991,0-8.1959991,2.7260132-9.6370087,6.7810059
	c-0.4689941,1.3130035-1.0079803,2.6130066-1.6019745,3.8630066c-1.8470154,3.8909912-1.0390167,8.5589905,2.0159912,11.6179962
	l7.0310059,7.0309906l-10.1480255,10.1480255l-7.0309906-7.0310211c-3.0549927-3.0549927-7.7229919-3.8670044-11.617981-2.0159912
	c-1.25,0.5939941-2.5470276,1.1289978-3.859024,1.5979919c-4.0590057,1.4450073-6.7809906,5.315979-6.7809906,9.6410217V250.75
	h-14.3560028v-9.940979c0-4.3250427-2.7259979-8.1960144-6.7809906-9.6410217
	c-1.3130188-0.4689941-2.6130219-1.0039978-3.8630219-1.602005c-3.894989-1.8470001-8.5629883-1.0349884-11.6179962,2.0200043
	l-7.0309906,7.0310211l-10.1480103-10.1480255l7.0310059-7.0349884c3.0550079-3.0550079,3.8670044-7.7230072,2.0159912-11.6139984
	c-0.5939941-1.25-1.1289825-2.5500031-1.5979919-3.8590088
	C151.3869781,201.9020081,147.5160065,199.1759949,143.1909943,199.1759949L143.1909943,199.1759949z M143.1909943,199.1759949"/>
<path fill="#D71F34" d="M192,222.022995c16.5549927,0,30.0229797-13.4680023,30.0229797-30.0229797
	c0-16.5550079-13.4679871-30.0230103-30.0229797-30.0230103s-30.0230103,13.4680023-30.0230103,30.0230103
	C161.9769897,208.5549927,175.4449921,222.022995,192,222.022995L192,222.022995z M192,173.227005
	c10.3519897,0,18.7729797,8.42099,18.7729797,18.7730103c0,10.3519897-8.42099,18.7729797-18.7729797,18.7729797
	c-10.3520203,0-18.7730103-8.42099-18.7730103-18.7729797C173.2269897,181.647995,181.6479797,173.227005,192,173.227005
	L192,173.227005z M192,173.227005"/>
<path d="M70.6640015,141.3280029c39.0659943,0,70.6639862-31.75,70.6639862-70.6640015
	C141.3279877,31.6990051,109.6289825,0,70.6640015,0C31.6989746,0,0,31.6990051,0,70.6640015
	C0,109.5979919,31.6759949,141.3280029,70.6640015,141.3280029L70.6640015,141.3280029z M108.3159943,116.5859985
	c-10.6480103,8.7460022-23.9020081,13.4920044-37.6519928,13.4920044c-13.4530182,0-26.7810059-4.5619812-37.6520081-13.4920044
	c0-11.644989,9.1829834-19.7339783,19.3939819-19.7339783h36.5160065
	C99.144989,96.8520203,108.3159943,104.9490051,108.3159943,116.5859985L108.3159943,116.5859985z M70.6640015,11.25
	c32.7619934,0,59.4139862,26.6520081,59.4139862,59.4140015c0,13.4689941-4.5119934,25.9020081-12.0939941,35.8789978
	c-4.0700073-12.1560059-15.5540161-20.9410095-29.0620117-20.9410095H52.4059753
	c-13.5079956,0-24.9920044,8.7850037-29.0620117,20.9410095C15.7619934,96.5660095,11.25,84.1329956,11.25,70.6640015
	C11.25,37.9020081,37.9020081,11.25,70.6640015,11.25L70.6640015,11.25z M70.6640015,11.25"/>
<path d="M313.3359985,242.6719971c-38.9649963,0-70.6640015,31.6990051-70.6640015,70.6640015
	c0,38.9490051,31.6439819,70.664032,70.6640015,70.664032c38.8239746,0,70.6640015-31.559021,70.6640015-70.664032
	C384,274.3710022,352.3009949,242.6719971,313.3359985,242.6719971L313.3359985,242.6719971z M350.9879761,359.2579956
	c-21.815979,17.9219971-53.3119812,18.0620117-75.3040161,0c0-11.644989,9.1830444-19.7349854,19.3940125-19.7349854h36.5160217
	C341.815979,339.5230103,350.9879761,347.6210022,350.9879761,359.2579956L350.9879761,359.2579956z M360.6559753,349.2149963
	c-4.0700073-12.1560059-15.5539856-20.9419861-29.0619812-20.9419861h-36.5160217
	c-13.5039673,0-24.9879761,8.7859802-29.0579834,20.9419861c-7.5860291-9.9769897-12.0979919-22.4100037-12.0979919-35.8789978
	c0-32.7619934,26.6520081-59.4140015,59.4140015-59.4140015S372.75,280.5740051,372.75,313.3359985
	C372.75,326.8049927,368.2379761,339.2380066,360.6559753,349.2149963L360.6559753,349.2149963z M360.6559753,349.2149963"/>
<path d="M90.1089935,68.2340088c10.7459869-10.7460022,10.75-28.1440125,0-38.8900146
	c-10.7460022-10.7460022-28.1439972-10.75-38.8900146,0c-10.7499847,10.7460022-10.7499847,28.1400146,0,38.8900146
	C61.9649963,78.980011,79.3589783,78.9840088,90.1089935,68.2340088L90.1089935,68.2340088z M59.1719971,37.2969971
	c6.3359985-6.3359985,16.6439972-6.3359985,22.9799957,0h0.0039978c6.3479919,6.3510132,6.3479919,16.6289978-0.0039978,22.980011
	c-6.332016,6.3359985-16.6439972,6.3359985-22.9799957,0C52.8200073,53.9299927,52.8200073,43.6480103,59.1719971,37.2969971
	L59.1719971,37.2969971z M59.1719971,37.2969971"/>
<path d="M51.2189789,310.9060059c10.7189941,10.7189941,28.1680145,10.7229919,38.8900146,0
	c10.7229919-10.7220154,10.7229919-28.1679993,0-38.8900146c-10.7220001-10.7229919-28.1679993-10.7229919-38.8900146,0
	C40.4959717,282.7380066,40.4959717,300.1839905,51.2189789,310.9060059L51.2189789,310.9060059z M59.1719971,279.9689941
	c6.3359985-6.3359985,16.6439972-6.3359985,22.9799957,0c6.3359833,6.3359985,6.3359833,16.6480103,0.0039978,22.9840088
	c-6.3360138,6.3359985-16.647995,6.3359985-22.9839935,0S52.8359985,286.3049927,59.1719971,279.9689941L59.1719971,279.9689941z
	 M59.1719971,279.9689941"/>
<path d="M293.8909912,29.3439941c-10.7230225,10.7220154-10.7230225,28.1679993,0,38.8900146
	c10.7339783,10.7349854,28.1789856,10.7109985,38.8900146,0c10.75-10.75,10.75-28.1440125,0-38.8900146
	C322.05896,18.6210022,304.6130066,18.6210022,293.8909912,29.3439941L293.8909912,29.3439941z M324.8280029,60.2770081
	c-6.3360291,6.3359985-16.644043,6.3399963-22.9840393,0c-6.335968-6.3359985-6.335968-16.6440125,0-22.980011
	c6.3360291-6.3359985,16.6480103-6.3359985,22.9840393,0C331.1799927,43.6480103,331.1799927,53.9299927,324.8280029,60.2770081
	L324.8280029,60.2770081z M324.8280029,60.2770081"/>
<path d="M332.7810059,272.0159912c-10.7220459-10.7229919-28.1679993-10.7229919-38.8900146,0
	c-10.7230225,10.7220154-10.7230225,28.1679993,0,38.8900146c10.7220154,10.7229919,28.1679688,10.7229919,38.8900146,0
	C343.5039978,300.1839905,343.5039978,282.7380066,332.7810059,272.0159912L332.7810059,272.0159912z M324.8280029,302.9530029
	c-6.3360291,6.3359985-16.644043,6.3359985-22.9840393,0c-6.3319702-6.3359985-6.3319702-16.6480103,0-22.9840088
	c6.3360291-6.3320007,16.6480103-6.3359985,22.9840393,0C331.1640015,286.3049927,331.1640015,296.6170044,324.8280029,302.9530029
	L324.8280029,302.9530029z M324.8280029,302.9530029"/>
<path d="M227.394989,76.2890015c3.1049957,0,5.625-2.5190125,5.625-5.625c0-3.105011-2.5200043-5.625-5.625-5.625h-70.7899933
	c-3.105011,0-5.625,2.519989-5.625,5.625c0,3.1059875,2.519989,5.625,5.625,5.625H227.394989z M227.394989,76.2890015"/>
<path d="M156.6049957,307.7109985c-3.105011,0-5.625,2.5190125-5.625,5.625c0,3.1090393,2.519989,5.625,5.625,5.625h70.7899933
	c3.1049957,0,5.625-2.5159607,5.625-5.625c0-3.1059875-2.5200043-5.625-5.625-5.625H156.6049957z M156.6049957,307.7109985"/>
<path d="M76.2890015,227.3950043v-70.7900085c0-3.1049957-2.5190125-5.625-5.625-5.625c-3.109024,0-5.625,2.5200043-5.625,5.625
	v70.7900085c0,3.1049957,2.515976,5.625,5.625,5.625C73.769989,233.0200043,76.2890015,230.5,76.2890015,227.3950043
	L76.2890015,227.3950043z M76.2890015,227.3950043"/>
<path d="M318.9609985,227.3950043v-70.7900085c0-3.1049957-2.519989-5.625-5.625-5.625c-3.1090088,0-5.625,2.5200043-5.625,5.625
	v70.7900085c0,3.1049957,2.5159912,5.625,5.625,5.625C316.4410095,233.0200043,318.9609985,230.5,318.9609985,227.3950043
	L318.9609985,227.3950043z M318.9609985,227.3950043"/>
<path d="M371.6409607,59.1990051c0.5970154,3.0469971,3.5540466,5.0390015,6.6010437,4.4419861
	c3.0469971-0.5939941,5.0349731-3.5509949,4.4419861-6.5979919C376.2229614,23.9880066,347.0589905,0,313.3359985,0
	c-38.9649963,0-70.6640015,31.6990051-70.6640015,70.6640015c0,39.1520081,31.8280029,70.6640015,70.6640015,70.6640015
	c33.3709717,0,62.1520081-23.4449768,69.0859985-55.7770081c0.6519775-3.0390015-1.2810059-6.0310059-4.3200073-6.6799927
	c-3.0319824-0.6520081-6.0279846,1.2810059-6.6800232,4.3200073c-1.8599548,8.6679993-5.6209717,16.5749817-10.7739868,23.3289795
	c-4.0780029-12.1409912-15.5539856-20.9179993-29.0539856-20.9179993h-36.5160217
	c-13.5039673,0-24.9919739,8.7850037-29.0579834,20.9410095c-7.5860291-9.9769897-12.0979919-22.4100037-12.0979919-35.8789978
	c0-32.7619934,26.6520081-59.4140015,59.4140015-59.4140015C341.6910095,11.25,366.2109985,31.4140015,371.6409607,59.1990051
	L371.6409607,59.1990051z M295.0779724,96.8520203h36.5160217c10.6950073,0,19.3939819,8.6989746,19.3939819,19.3939819v0.2739868
	c-10.3710022,8.5029907-23.5739746,13.5580139-37.6519775,13.5580139c-13.2579956,0-26.6480408-4.4530029-37.6520386-13.4920044
	C275.68396,104.9410095,284.8670044,96.8520203,295.0779724,96.8520203L295.0779724,96.8520203z M295.0779724,96.8520203"/>
<path d="M70.6640015,384.0000305c38.9959869,0,70.6639862-31.7150269,70.6639862-70.664032
	c0-33.4140015-23.7229919-62.5270081-56.4100037-69.2269897c-3.0390015-0.6169891-6.0160065,1.3399963-6.6409912,4.3829956
	c-0.625,3.0429993,1.3399963,6.0159912,4.3829956,6.6409912c27.477005,5.6289978,47.4179993,30.1090088,47.4179993,58.2030029
	c0,13.4689941-4.5119934,25.9020081-12.0979919,35.8789978c-4.0660095-12.1560059-15.5540009-20.9419861-29.0580139-20.9419861
	H52.4059753c-13.5079956,0-24.9920044,8.7859802-29.0620117,20.9419861C15.7619934,339.2380066,11.25,326.8049927,11.25,313.3359985
	c0-28.0939941,19.9410095-52.5740051,47.417984-58.2030029c3.0429993-0.625,5.0039978-3.5979919,4.3830109-6.6409912
	c-0.6250153-3.0429993-3.5980072-4.9999847-6.6410217-4.3829956C23.7229919,250.8089905,0,279.9219971,0,313.3359985
	C0,352.230011,31.5820007,384.0000305,70.6640015,384.0000305L70.6640015,384.0000305z M52.4059753,339.5230103h36.5160065
	c10.2230072,0,19.3940125,8.0979919,19.3940125,19.7349854c-21.7810059,17.8900146-53.2850189,18.0859985-75.3040009,0
	C33.0119934,347.6130066,42.1949768,339.5230103,52.4059753,339.5230103L52.4059753,339.5230103z M52.4059753,339.5230103"/>
</svg>
