<?xml version="1.0" encoding="utf-8"?>
<!-- Generator: Adobe Illustrator 25.3.1, SVG Export Plug-In . SVG Version: 6.00 Build 0)  -->
<svg version="1.1" id="Capa_1" xmlns="http://www.w3.org/2000/svg" xmlns:xlink="http://www.w3.org/1999/xlink" x="0px" y="0px"
	 viewBox="-49 141 512 512" enable-background="new -49 141 512 512" xml:space="preserve">
<path d="M230,525c-2.6300049,0-5.2099915,1.0700073-7.0700073,2.9299927C221.0700073,529.789978,220,532.3699951,220,535
	s1.0700073,5.2099609,2.9299927,7.0700073C224.789978,543.9299927,227.3699951,545,230,545s5.2099915-1.0700073,7.0700073-2.9299927
	S240,537.6300049,240,535s-1.0700073-5.2099609-2.9299927-7.0700073C235.2099915,526.0700073,232.6300049,525,230,525z"/>
<path d="M282,250.3269958h-0.1329956c-5.5230103,0-10,4.477005-10,10c0,5.5230103,4.4769897,10,10,10H282
	c5.5230103,0,10-4.4769897,10-10S287.5230103,250.3269958,282,250.3269958z"/>
<path d="M401.1270142,250.3259888h-79.8729858c-5.5230103,0-10,4.477005-10,10c0,5.5230103,4.4769897,10,10,10h79.8729858
	c5.5230103,0,10-4.4769897,10-10S406.6499939,250.3259888,401.1270142,250.3259888z"/>
<path d="M453,205H332.0409851v-40.8130035C332.0409851,151.4020081,321.6390076,141,308.8540039,141H167.1459961
	c-12.7850037,0-23.1869965,10.4020081-23.1869965,23.1869965V205H23c-5.5230026,0-10,4.4769897-10,10v94.1959839
	c0,13.9530029,5.7509995,26.5830078,15,35.6620178v45.1340027c0,5.5230103,4.4769974,10,10,10s10-4.4769897,10-10v-33.0979919
	c4.737999,1.4930115,9.776001,2.302002,15,2.302002h38v0.0279846c0,22.6069946,18.3930054,41,41,41s41-18.3930054,41-41v-0.1239929
	h110v0.1239929c0,22.6069946,18.3930054,41,41,41s41-18.3930054,41-41v-0.1220093l37.9679871,0.0690308
	c0.0109863,0,0.0209961,0,0.0329895,0c5.1650085,0,10.2070007-0.7860107,14.9989929-2.2870178V515c0,5.5140381-4.4859924,10-10,10
	H272.6669922c-5.5230103,0-10,4.4769897-10,10s4.4769897,10,10,10H418c16.5419922,0,30-13.4580078,30-30V344.8640137
	c0.1130066-0.1110229,0.2319946-0.2150269,0.3439941-0.3280029C457.7950134,335.09198,463,322.5319824,463,309.1699829V215
	C463,209.4769897,458.5230103,205,453,205z M163.9589996,164.1869965c0-1.7570038,1.4299927-3.1869965,3.1869965-3.1869965
	h141.7070007c1.7569885,0,3.1870117,1.4299927,3.1870117,3.1869965V205H163.9589996V164.1869965z M163,359.223999
	c0,11.5800171-9.4199982,21-21,21s-21-9.4199829-21-21v-33.0499878h42V359.223999z M355,359.223999c0,11.5800171-9.4200134,21-21,21
	s-21-9.4199829-21-21v-33.0499878h42V359.223999z M412.9930115,339.1699829L375,339.1010132v-19.927002
	c0-7.1680298-5.8320007-13-13-13h-56c-7.1679993,0-13,5.8319702-13,13v19.9259949H183v-19.9259949c0-7.1679993-5.8320007-13-13-13
	h-56c-7.1679993,0-13,5.8320007-13,13v20.0220032H63c-16.5419998,0-30-13.4580078-30-30V225h410v84.1699829
	c0,8.0170288-3.1229858,15.553009-8.7929993,21.2200317c-5.6659851,5.6619873-13.1960144,8.7799683-21.1940002,8.7799683
	C413.006012,339.1699829,412.9989929,339.1699829,412.9930115,339.1699829z"/>
<path d="M269.8479919,458.4830017c0-16.446991-14.2869873-29.8280029-31.8479919-29.8280029
	c-6.5329895,0-11.8479919-4.4089966-11.8479919-9.8280029S231.4670105,408.9989929,238,408.9989929
	s11.8479919,4.4089966,11.8479919,9.8280029c0,5.5230103,4.4769897,10,10,10s10-4.4769897,10-10
	c0-13.1749878-9.1719971-24.3760071-21.8479919-28.3130188v-0.5219727c0-5.5230103-4.4769897-10-10-10s-10,4.4769897-10,10
	v0.5219727c-12.6759949,3.9370117-21.8479919,15.1380005-21.8479919,28.3130188
	c0,16.446991,14.2869873,29.8280029,31.8479919,29.8280029c6.5329895,0,11.8479919,4.4089966,11.8479919,9.8280029
	S244.5329895,468.3110046,238,468.3110046s-11.8479919-4.4089966-11.8479919-9.8280029c0-5.5230103-4.4769897-10-10-10
	s-10,4.4769897-10,10c0,13.1799927,9.178009,24.3829956,21.8600159,28.3169861
	c0.1289978,5.4100037,4.54599,9.7590027,9.9880066,9.7590027s9.8590088-4.348999,9.9880066-9.7590027
	C260.6700134,482.8659973,269.8479919,471.6629944,269.8479919,458.4830017z"/>
<path fill="#D71E34" d="M73,473c-31.9810028,0-58,26.0190125-58,58s26.0189972,58,58,58s58-26.019043,58-58S104.9810028,473,73,473z
	 M73,569c-20.9530029,0-38-17.0469971-38-38s17.0469971-38,38-38s38,17.0469971,38,38S93.9530029,569,73,569z"/>
<path fill="#D71E34" d="M186.5480042,501.1210022l-13.7940063-2.1860046l-6.5800018-15.868988l8.1999969-11.3059998
	c2.8869934-3.980011,2.4519958-9.4689941-1.026001-12.9440002l-28.2369995-28.2179871
	c-3.4790039-3.4769897-8.9689941-3.9079895-12.9459991-1.0169983l-11.2940063,8.2049866l-15.8820038-6.5710144
	l-2.1950073-13.7860107c-0.772995-4.855011-4.9589996-8.428009-9.875-8.428009c0,0-0.003006,0-0.0039978,0l-39.9189987,0.0169983
	c-4.9169998,0.0020142-9.1039963,3.57901-9.8730011,8.4349976l-2.185997,13.7940063l-15.8690033,6.5799866l-11.3059998-8.2000122
	c-3.9790001-2.8859863-9.4690018-2.4519958-12.9440002,1.026001l-28.2199783,28.2370605
	c-3.4759998,3.4790039-3.9069996,8.9679871-1.0170002,12.9460144l8.2049999,11.2940063l-6.5709991,15.8819885l-13.7859993,2.1950073
	c-4.8560028,0.7730103-8.4300003,4.9620056-8.4280014,9.8800049l0.0169983,39.9190063
	c0.0020027,4.9169922,3.5790024,9.1040039,8.4350014,9.8729858l13.7940006,2.1860352l6.5799999,15.8689575l-8.2000008,11.3059692
	c-2.887001,3.9800415-2.4519997,9.4689941,1.026001,12.9440308l28.2369995,28.2179565
	c3.4780006,3.4770508,8.9690018,3.90802,12.9459991,1.0170288l11.2939987-8.2050171l15.8819962,6.5710449l2.1949997,13.7860107
	c0.7730026,4.8549805,4.9589996,8.4279785,9.875,8.4279785c0,0,0.0029984,0,0.0039978,0l39.9189987-0.0169678
	c4.9170074-0.0020142,9.1040039-3.5789795,9.8730011-8.4349976l2.1860046-13.7940063l15.8690033-6.5799561l11.3059998,8.1999512
	c3.9799957,2.8870239,9.4689941,2.4530029,12.9440002-1.026001l28.2180023-28.2369385
	c3.4759979-3.4790039,3.9069977-8.9680176,1.0169983-12.9460449l-8.2050018-11.2940063l6.5709991-15.882019l13.7859955-2.1949463
	c4.8560028-0.7730713,8.4300079-4.9620361,8.4279938-9.8800049l-0.0169983-39.9190369
	C194.9810028,506.0759888,191.4049988,501.8900146,186.5480042,501.1210022z M164.1139984,544.1170044
	c-3.4349976,0.5469971-6.3379974,2.8389893-7.6679993,6.052002l-10.852005,26.2260132
	c-1.3300018,3.2130127-0.8950043,6.8869629,1.1499939,9.7009888l6.477005,8.9160156l-16.1490021,16.1599731l-8.927002-6.4749756
	c-2.8150024-2.0410156-6.4880066-2.4730225-9.7019958-1.1419678l-26.2099915,10.867981
	c-3.2120056,1.3319702-5.5019989,4.2369995-6.0460052,7.6719971l-1.7259979,10.8909912l-22.8460007,0.0100098l-1.7330017-10.8829956
	c-0.5469971-3.4349976-2.8389969-6.3380127-6.052002-7.6679688l-26.2259979-10.8520508
	c-1.2310028-0.5089722-2.5299988-0.7600098-3.8219986-0.7600098c-2.0800018,0-4.1429977,0.6490479-5.8779984,1.9100342
	l-8.9160004,6.4769897l-16.1599998-16.1489868l6.473999-8.9260254c2.0419998-2.8149414,2.4749985-6.4890137,1.1430016-9.7009277
	l-10.868-26.210022c-1.3320007-3.2130127-4.2369995-5.5020142-7.6720009-6.0469971l-10.8909988-1.7260132l-0.0100002-22.8460083
	l10.8830013-1.7329712c3.4350014-0.5469971,6.3380013-2.8389893,7.6679993-6.0520325l10.8520012-26.2260132
	c1.3300018-3.2130127,0.8950005-6.8869934-1.1500015-9.7009888l-6.4770012-8.9159851l16.1490021-16.1600037l8.9260025,6.473999
	c2.8150024,2.0419922,6.4889984,2.4750061,9.7009964,1.1430054l26.2099991-10.8680115
	c3.2129974-1.3320007,5.5019989-4.2369995,6.0469971-7.6719971l1.7259979-10.8909912l22.8460007-0.0100098l1.7330017,10.8829956
	c0.5469971,3.4349976,2.8390045,6.3380127,6.052002,7.6679993l26.2259979,10.8519897
	c3.2129974,1.3299866,6.8880005,0.8940125,9.701004-1.1499939l8.9160004-6.4769897l16.1600037,16.1489868l-6.4750061,8.927002
	c-2.0420074,2.8150024-2.473999,6.4890137-1.1419983,9.7019958l10.8679962,26.2099915
	c1.3320007,3.2119751,4.2369995,5.5020142,7.6719971,6.0459595l10.8910065,1.7260742l0.0099945,22.8459473L164.1139984,544.1170044z
	"/>
</svg>
