<?xml version="1.0" encoding="utf-8"?>
<!-- Generator: Adobe Illustrator 25.3.1, SVG Export Plug-In . SVG Version: 6.00 Build 0)  -->
<svg version="1.1" id="Capa_1" xmlns="http://www.w3.org/2000/svg" xmlns:xlink="http://www.w3.org/1999/xlink" x="0px" y="0px"
	 viewBox="-49 141 512 512" enable-background="new -49 141 512 512" xml:space="preserve">
<path d="M452.3333435,205h-490.666687C-44.224369,205-49,200.2243652-49,194.3333282v-42.6666565
	C-49,145.7756348-44.224369,141-38.3333321,141h490.666687C458.2243652,141,463,145.7756348,463,151.6666718v42.6666565
	C463,200.2243652,458.2243652,205,452.3333435,205z M-27.666666,183.6666718H441.666687v-21.3333435H-27.666666V183.6666718z"/>
<path d="M409.666687,535.666687H4.3333349c-17.673111,0-32-14.3269043-32-32V226.3333435h21.333334V503.666687
	c0,5.8910217,4.77563,10.666687,10.666667,10.666687H409.666687c5.8910217,0,10.6666565-4.7756653,10.6666565-10.666687V226.3333435
	h21.3333435V503.666687C441.666687,521.3397827,427.3397827,535.666687,409.666687,535.666687z"/>
<path d="M196.3333435,525h21.3333282v53.333374h-21.3333282V525z"/>
<path d="M228.3333435,653h-42.6666718C179.7756348,653,175,648.2243652,175,642.333374v-64
	c0-5.8910522,4.7756348-10.666687,10.6666718-10.666687h42.6666718c5.891037,0,10.6666718,4.7756348,10.6666718,10.666687v64
	C239.0000153,648.2243652,234.2243805,653,228.3333435,653z M196.3333435,631.666687h21.3333282V589h-21.3333282V631.666687z"/>
<path fill="#D71E34" d="M356.3333435,311.666687H335v-53.3333435h-64V237h74.666687
	c5.8910217,0,10.6666565,4.7756348,10.6666565,10.6666718V311.666687z"/>
<path fill="#D71E34" d="M75.8746643,436.5413513L60.791996,421.4586792l117.3333435-117.3333435
	c1.9999084-2.0005188,4.7125854-3.1247253,7.5413361-3.1253357h91.5839996l60.8746643-60.874649l15.0826721,15.0826569l-64,64
	c-1.9999084,2.0005493-4.7125854,3.1247559-7.5413208,3.1253357h-91.5840149L75.8746643,436.5413513z"/>
<path d="M377.666687,482.3333435H271V461h96v-21.333313h-96v-21.3333435h106.666687
	c5.8910217,0,10.6666565,4.7756348,10.6666565,10.6666565v42.666687
	C388.3333435,477.5577087,383.5577087,482.3333435,377.666687,482.3333435z"/>
<path d="M228.3333435,418.3333435h21.3333282v21.3333435h-21.3333282V418.3333435z"/>
<path d="M185.6666718,418.3333435H207v21.3333435h-21.3333282V418.3333435z"/>
<path d="M132.3333435,461h117.3333282v21.3333435H132.3333435V461z"/>
</svg>
